<?xml version="1.0" encoding="UTF-8" ?>
<!DOCTYPE svg PUBLIC "-//W3C//DTD SVG 1.1//EN" "http://www.w3.org/Graphics/SVG/1.1/DTD/svg11.dtd">
<svg width="206pt" height="212pt" viewBox="0 0 206 212" version="1.1" xmlns="http://www.w3.org/2000/svg">
<g id="#b0e844ff">
<path fill="#b0e844" opacity="1.00" d=" M 75.20 1.94 C 81.64 1.14 88.13 0.40 94.63 0.64 C 96.91 2.34 99.26 3.95 101.82 5.19 C 115.06 11.30 128.12 18.30 139.13 27.97 C 138.60 27.93 137.56 27.84 137.03 27.79 C 128.72 25.21 120.53 22.23 112.15 19.88 C 103.02 15.97 92.49 16.34 83.90 11.07 C 80.19 8.92 77.49 5.49 75.20 1.94 Z" />
</g>
<g id="#d2f349ff">
<path fill="#d2f349" opacity="1.00" d=" M 94.63 0.64 C 121.15 0.96 148.03 8.67 169.38 24.70 C 177.82 32.20 186.57 39.80 192.24 49.72 C 194.56 53.84 196.67 58.08 198.68 62.36 C 203.10 71.66 204.80 82.06 204.80 92.31 C 201.19 86.48 198.09 80.36 194.42 74.58 C 187.32 63.95 178.83 54.16 168.66 46.35 C 162.62 41.41 156.16 36.98 149.01 33.80 C 145.82 31.69 142.56 29.67 139.13 27.97 C 128.12 18.30 115.06 11.30 101.82 5.19 C 99.26 3.95 96.91 2.34 94.63 0.64 Z" />
</g>
<g id="#9de148ff">
<path fill="#9de148" opacity="1.00" d=" M 43.52 11.06 C 53.57 6.52 64.20 3.11 75.20 1.94 C 77.49 5.49 80.19 8.92 83.90 11.07 C 92.49 16.34 103.02 15.97 112.15 19.88 C 98.62 18.80 85.42 14.62 71.74 15.23 C 62.34 13.95 52.31 15.25 43.52 11.06 Z" />
</g>
<g id="#79d644ff">
<path fill="#79d644" opacity="1.00" d=" M 34.47 15.51 C 37.35 13.76 40.41 12.34 43.52 11.06 C 52.31 15.25 62.34 13.95 71.74 15.23 C 76.37 16.45 81.06 17.38 85.73 18.42 C 89.64 19.17 92.42 22.19 95.23 24.76 C 99.66 29.02 105.39 32.39 107.62 38.44 C 97.62 38.04 87.44 38.37 77.81 41.36 C 74.00 36.47 69.08 32.64 64.80 28.19 C 60.97 24.71 57.46 20.63 52.78 18.28 C 46.83 16.57 40.47 17.09 34.47 15.51 Z" />
</g>
<g id="#88dd3bff">
<path fill="#88dd3b" opacity="1.00" d=" M 71.74 15.23 C 85.42 14.62 98.62 18.80 112.15 19.88 C 120.53 22.23 128.72 25.21 137.03 27.79 C 142.20 31.62 147.48 35.39 151.79 40.21 C 158.50 47.59 165.54 54.84 170.37 63.66 C 178.92 76.67 184.10 91.58 187.24 106.76 C 188.64 113.69 191.34 120.86 197.56 124.87 C 195.49 129.36 193.10 133.72 190.08 137.65 C 188.40 133.35 187.35 128.83 186.80 124.25 C 186.14 120.12 185.89 115.43 182.65 112.37 C 175.89 105.95 170.23 97.88 161.26 94.31 C 162.40 84.50 160.57 74.28 155.05 66.00 C 144.87 49.76 126.02 41.19 107.62 38.44 C 105.39 32.39 99.66 29.02 95.23 24.76 C 92.42 22.19 89.64 19.17 85.73 18.42 C 81.06 17.38 76.37 16.45 71.74 15.23 Z" />
</g>
<g id="#6ace4dff">
<path fill="#6ace4d" opacity="1.00" d=" M 25.65 21.62 C 28.43 19.37 31.37 17.30 34.47 15.51 C 40.47 17.09 46.83 16.57 52.78 18.28 C 57.46 20.63 60.97 24.71 64.80 28.19 C 69.08 32.64 74.00 36.47 77.81 41.36 C 70.64 43.96 63.68 47.21 57.48 51.67 C 51.89 47.63 46.68 43.11 41.91 38.13 C 36.01 33.11 30.11 28.02 25.65 21.62 Z" />
</g>
<g id="#5cc956ff">
<path fill="#5cc956" opacity="1.00" d=" M 10.31 38.46 C 14.32 31.93 19.49 26.18 25.65 21.62 C 30.11 28.02 36.01 33.11 41.91 38.13 C 46.68 43.11 51.89 47.63 57.48 51.67 C 51.41 55.98 46.38 61.53 41.72 67.29 C 35.70 62.32 30.57 56.38 24.51 51.45 C 19.54 47.39 14.97 42.87 10.31 38.46 Z" />
</g>
<g id="#a0e341ff">
<path fill="#a0e341" opacity="1.00" d=" M 137.03 27.79 C 137.56 27.84 138.60 27.93 139.13 27.97 C 142.56 29.67 145.82 31.69 149.01 33.80 C 152.13 37.40 155.34 40.92 158.70 44.30 C 167.75 53.68 174.22 65.10 180.53 76.41 C 182.66 80.42 185.18 84.33 188.80 87.17 C 193.96 91.29 199.23 95.30 204.57 99.20 C 203.89 108.09 201.91 117.01 197.56 124.87 C 191.34 120.86 188.64 113.69 187.24 106.76 C 184.10 91.58 178.92 76.67 170.37 63.66 C 165.54 54.84 158.50 47.59 151.79 40.21 C 147.48 35.39 142.20 31.62 137.03 27.79 Z" />
</g>
<g id="#b0ea3fff">
<path fill="#b0ea3f" opacity="1.00" d=" M 149.01 33.80 C 156.16 36.98 162.62 41.41 168.66 46.35 C 178.83 54.16 187.32 63.95 194.42 74.58 C 198.09 80.36 201.19 86.48 204.80 92.31 C 204.85 94.61 204.70 96.90 204.57 99.20 C 199.23 95.30 193.96 91.29 188.80 87.17 C 185.18 84.33 182.66 80.42 180.53 76.41 C 174.22 65.10 167.75 53.68 158.70 44.30 C 155.34 40.92 152.13 37.40 149.01 33.80 Z" />
</g>
<g id="#50c25dff">
<path fill="#50c25d" opacity="1.00" d=" M 5.95 45.77 C 7.24 43.24 8.74 40.82 10.31 38.46 C 14.97 42.87 19.54 47.39 24.51 51.45 C 30.57 56.38 35.70 62.32 41.72 67.29 C 37.18 73.61 32.97 80.26 29.87 87.42 C 21.01 74.05 13.84 59.70 5.95 45.77 Z" />
</g>
<g id="#2da368ff">
<path fill="#2da368" opacity="1.00" d=" M 14.79 111.28 C -0.27 93.54 -3.84 66.85 5.95 45.77 C 13.84 59.70 21.01 74.05 29.87 87.42 C 27.09 95.82 23.73 104.05 21.53 112.64 C 20.81 115.12 21.13 117.70 21.64 120.18 C 21.42 119.93 20.98 119.43 20.76 119.19 C 18.81 116.52 16.89 113.83 14.79 111.28 Z" />
</g>
<g id="#6dd14aff">
<path fill="#6dd14a" opacity="1.00" d=" M 119.57 81.66 C 124.46 79.70 128.86 84.54 129.57 88.99 C 129.00 92.37 126.51 95.70 123.03 96.42 C 118.84 96.64 114.97 93.12 114.52 89.00 C 114.97 85.98 116.99 83.24 119.57 81.66 Z" />
</g>
<g id="#58c659ff">
<path fill="#58c659" opacity="1.00" d=" M 67.26 81.90 C 71.30 80.52 75.37 84.34 76.34 88.09 C 76.64 91.26 74.42 94.40 71.60 95.71 C 66.21 98.54 58.93 90.89 62.62 85.75 C 63.64 83.97 65.34 82.63 67.26 81.90 Z" />
</g>
<g id="#63cb52ff">
<path fill="#63cb52" opacity="1.00" d=" M 93.28 82.02 C 98.94 79.54 105.22 87.44 101.60 92.48 C 99.71 94.67 96.48 97.44 93.48 95.73 C 90.97 94.43 88.13 92.17 88.44 89.00 C 88.25 85.90 90.91 83.57 93.28 82.02 Z" />
</g>
<g id="#74d348ff">
<path fill="#74d348" opacity="1.00" d=" M 161.26 94.31 C 170.23 97.88 175.89 105.95 182.65 112.37 C 185.89 115.43 186.14 120.12 186.80 124.25 C 187.35 128.83 188.40 133.35 190.08 137.65 C 186.89 142.24 183.12 146.42 178.87 150.04 C 176.94 147.68 175.07 145.28 172.87 143.18 C 169.29 139.65 164.80 137.26 161.10 133.89 C 157.78 130.86 154.97 127.32 152.15 123.83 C 153.05 119.83 153.87 115.80 154.86 111.82 C 157.41 106.14 159.90 100.40 161.26 94.31 Z" />
</g>
<g id="#61ca53ff">
<path fill="#61ca53" opacity="1.00" d=" M 147.86 119.73 C 150.11 117.01 152.59 114.51 154.86 111.82 C 153.87 115.80 153.05 119.83 152.15 123.83 C 154.97 127.32 157.78 130.86 161.10 133.89 C 164.80 137.26 169.29 139.65 172.87 143.18 C 175.07 145.28 176.94 147.68 178.87 150.04 C 170.80 156.67 162.07 162.65 152.43 166.75 C 143.15 161.12 135.96 152.97 128.85 144.94 C 133.66 139.39 139.82 135.02 143.79 128.76 C 145.61 125.98 146.66 122.80 147.86 119.73 Z" />
</g>
<g id="#179071ff">
<path fill="#179071" opacity="1.00" d=" M 20.76 119.19 C 20.98 119.43 21.42 119.93 21.64 120.18 C 28.22 124.48 34.65 129.10 41.90 132.22 C 50.98 136.43 60.85 138.51 70.70 139.96 L 71.17 140.62 C 73.39 144.65 76.84 147.71 80.37 150.57 C 77.15 152.15 73.66 153.22 70.05 153.06 C 61.69 152.95 53.33 153.23 44.98 153.41 C 49.95 156.51 54.78 159.90 58.67 164.33 C 61.67 167.94 66.60 168.83 69.80 172.17 C 72.37 174.69 74.97 177.23 78.09 179.07 C 72.92 178.70 67.80 177.84 62.66 177.15 C 55.94 176.01 51.25 182.12 46.07 185.31 C 42.23 184.64 38.96 182.48 36.56 179.45 C 32.32 174.28 25.83 171.64 21.69 166.38 C 18.27 162.28 15.52 157.32 15.55 151.84 C 16.50 140.86 17.90 129.85 20.76 119.19 Z" />
</g>
<g id="#4dc05dff">
<path fill="#4dc05d" opacity="1.00" d=" M 121.94 134.14 C 131.43 131.10 140.01 125.78 147.86 119.73 C 146.66 122.80 145.61 125.98 143.79 128.76 C 139.82 135.02 133.66 139.39 128.85 144.94 C 135.96 152.97 143.15 161.12 152.43 166.75 C 145.01 170.19 137.27 172.91 129.38 175.05 C 117.42 168.52 104.21 163.70 93.96 154.46 C 105.44 151.06 118.34 148.70 126.85 139.55 C 125.24 137.72 123.53 135.98 121.94 134.14 Z" />
</g>
<g id="#37ab64ff">
<path fill="#37ab64" opacity="1.00" d=" M 91.97 140.35 C 102.22 139.89 112.17 137.08 121.94 134.14 C 123.53 135.98 125.24 137.72 126.85 139.55 C 118.34 148.70 105.44 151.06 93.96 154.46 C 104.21 163.70 117.42 168.52 129.38 175.05 C 127.68 175.50 125.96 175.91 124.23 176.27 C 116.87 172.61 109.54 168.86 102.67 164.33 C 97.95 161.19 92.52 158.64 89.32 153.74 C 85.05 147.46 79.01 141.68 71.17 140.62 L 70.70 139.96 C 77.76 140.69 84.89 140.58 91.97 140.35 Z" />
</g>
<g id="#239a6cff">
<path fill="#239a6c" opacity="1.00" d=" M 71.17 140.62 C 79.01 141.68 85.05 147.46 89.32 153.74 C 92.52 158.64 97.95 161.19 102.67 164.33 C 109.54 168.86 116.87 172.61 124.23 176.27 C 109.10 179.41 93.49 180.35 78.09 179.07 C 74.97 177.23 72.37 174.69 69.80 172.17 C 66.60 168.83 61.67 167.94 58.67 164.33 C 54.78 159.90 49.95 156.51 44.98 153.41 C 53.33 153.23 61.69 152.95 70.05 153.06 C 73.66 153.22 77.15 152.15 80.37 150.57 C 76.84 147.71 73.39 144.65 71.17 140.62 Z" />
</g>
<g id="#0e8975ff">
<path fill="#0e8975" opacity="1.00" d=" M 14.94 198.98 C 14.02 183.27 14.43 167.52 15.55 151.84 C 15.52 157.32 18.27 162.28 21.69 166.38 C 25.83 171.64 32.32 174.28 36.56 179.45 C 38.96 182.48 42.23 184.64 46.07 185.31 C 35.21 193.34 25.54 202.80 15.69 212.00 L 15.12 212.00 C 15.21 207.66 15.18 203.31 14.94 198.98 Z" />
</g>
</svg>
