<?xml version="1.0" encoding="UTF-8"?>
<svg width="19px" height="39px" viewBox="0 0 19 39" version="1.1" xmlns="http://www.w3.org/2000/svg" xmlns:xlink="http://www.w3.org/1999/xlink">
    <!-- Generator: Sketch 60.1 (88133) - https://sketch.com -->
    <title>right</title>
    <desc>Created with Sketch.</desc>
    <defs>
        <polygon id="path-1" points="0.0342561077 0.0846153846 13.7284615 0.0846153846 13.7284615 12.1892924 0.0342561077 12.1892924"></polygon>
        <polygon id="path-3" points="0 0.0820363353 11.9344803 0.0820363353 11.9344803 2.6922542 0 2.6922542"></polygon>
    </defs>
    <g id="Page-1" stroke="none" stroke-width="1" fill="none" fill-rule="evenodd">
        <g id="Desktop-HD" transform="translate(-872.000000, -490.000000)">
            <g id="right" transform="translate(880.500000, 512.500000) scale(-1, -1) rotate(-37.000000) translate(-880.500000, -512.500000) translate(865.000000, 495.000000)">
                <g id="Group-3" transform="translate(16.153846, 0.299962)">
                    <mask id="mask-2" fill="white">
                        <use xlink:href="#path-1"></use>
                    </mask>
                    <g id="Clip-2"></g>
                    <path d="M1.28803846,1.45438462 C1.51688462,1.13130769 1.39496154,0.804384615 1.44611538,0.502461538 C1.47573077,0.326692308 1.58265385,0.0336153846 1.68226923,0.0920769231 C2.38803846,0.507076923 3.33957692,-0.162153846 3.94188462,0.619769231 C6.38765385,3.79207692 9.68342308,6.11784615 12.3541923,9.06592308 C12.5422692,9.27323077 12.7434231,9.46784615 12.9334231,9.67323077 C14.0318846,10.8578462 14.0315,10.8582308 12.6872692,11.6247692 C11.3041923,12.4136154 11.1691923,12.4186154 9.85611538,11.3666923 C7.12803846,9.18130769 4.4115,6.98053846 1.81111538,4.64284615 C0.999961538,3.914 0.263807692,3.10707692 0.0838076923,1.96476923 C0.0353461538,1.659 0.0157307692,1.33707692 0.0557307692,1.03246154 C0.0911153846,0.765153846 0.181115385,0.425923077 0.508807692,0.399769231 C0.849192308,0.372846154 0.793807692,0.725153846 0.864192308,0.941307692 C0.928807692,1.139 0.979961538,1.34515385 1.28803846,1.45438462" id="Fill-1" fill="#000000" mask="url(#mask-2)"></path>
                </g>
                <path d="M6.85103846,14.3422308 C8.21834615,14.4295385 9.38334615,15.0583846 10.5252692,15.7476154 C13.0048846,17.2449231 15.2279615,19.1287692 17.7568077,20.5533846 C18.2456538,20.8287692 18.2410385,21.0818462 17.7929615,21.5006923 C16.4906538,22.7172308 15.2256538,22.1664615 14.0006538,21.473 C11.5418077,20.0806923 9.12257692,18.6191538 6.67988462,17.1991538 C6.04680769,16.8310769 5.38988462,16.5037692 4.73680769,16.1710769 C4.3595,15.9783846 4.30219231,15.6522308 4.33026923,15.2876154 C4.3595,14.9103077 4.59719231,14.8145385 4.95065385,14.7249231 C5.57911538,14.5653077 6.1845,14.3183846 6.85103846,14.3422308" id="Fill-4" fill="#000000"></path>
                <g id="Group-8" transform="translate(0.000000, 31.453808)">
                    <mask id="mask-4" fill="white">
                        <use xlink:href="#path-3"></use>
                    </mask>
                    <g id="Clip-7"></g>
                    <path d="M5.39726923,2.66815385 C3.96496154,2.66815385 2.53303846,2.67469231 1.10111538,2.66430769 C0.645346154,2.66084615 0.163807692,2.65738462 0.0215,2.06738462 C-0.108115385,1.52853846 0.378807692,1.48546154 0.654192308,1.25469231 C1.18534615,0.809307692 1.80688462,0.603538462 2.46842308,0.501615385 C5.34611538,0.0566153846 8.22611538,-0.133769231 11.1141923,0.434307692 C11.4265,0.496230769 11.7576538,0.488538462 11.8972692,0.838923077 C12.0553462,1.23469231 11.6688077,1.34238462 11.5041923,1.58507692 C10.7365,2.71815385 9.60803846,2.71853846 8.43342308,2.682 C7.42226923,2.65084615 6.40919231,2.67584615 5.39726923,2.67584615 L5.39726923,2.66815385 Z" id="Fill-6" fill="#000000" mask="url(#mask-4)"></path>
                </g>
            </g>
        </g>
    </g>
</svg>