<?xml version="1.0" encoding="UTF-8"?>
<svg width="394px" height="409px" viewBox="0 0 394 409" version="1.1" xmlns="http://www.w3.org/2000/svg" xmlns:xlink="http://www.w3.org/1999/xlink">
    <!-- Generator: Sketch 61.2 (89653) - https://sketch.com -->
    <title>10</title>
    <desc>Created with Sketch.</desc>
    <g id="Page-1" stroke="none" stroke-width="1" fill="none" fill-rule="evenodd">
        <g id="Artboard" transform="translate(-3360.000000, -626.000000)" fill="#000000">
            <g id="Group" transform="translate(1.000000, -376.000000)">
                <g id="10" transform="translate(3359.773371, 1002.832861)">
                    <path d="M310.079454,270.66821 L308.811036,269.892609 C306.941851,274.068649 305.072665,278.245862 303.205827,282.421902 C306.034832,278.737506 309.018724,275.157541 310.079454,270.66821 M314.410379,254.927392 C316.954255,249.716436 319.258763,244.063117 318.918484,237.740976 C317.416565,243.470563 315.913472,249.198977 314.410379,254.927392 M58.9409457,108.553622 C59.6649178,107.7393 60.4100106,106.941405 61.1093417,106.104789 C75.5395008,88.8714384 91.59009,73.3101463 109.110917,59.2296528 C118.98369,51.2964681 130.67402,45.8484905 140.229981,37.7862346 C150.850194,28.8263473 161.462192,20.4202926 174.527717,15.4592654 C174.627454,15.4205441 174.539451,14.8819652 174.539451,14.0066279 C147.523677,16.2501198 123.819166,26.5582144 103.425918,43.7962586 C82.9106392,61.1387331 66.0375145,81.472139 58.9409457,108.553622 M374.475418,154.258903 C374.133966,118.201106 362.476491,86.5950919 336.354828,61.1316928 C313.166602,38.5289806 287.088355,21.0973297 253.607288,17.9080979 C313.397757,46.2122366 353.631594,91.515051 374.475418,154.258903 M260.559532,35.0522721 C263.974052,39.7586771 269.149806,42.1781752 273.385688,45.7863017 C297.720301,66.5163082 314.223813,92.3634007 325.180783,122.265675 C335.984042,151.749055 338.055048,182.161748 335.735287,212.941707 C334.281476,232.223769 329.503495,251.038829 322.545384,269.195625 C322.002112,270.613061 320.245571,272.418885 322.284895,273.696689 C323.985115,274.759767 324.802957,272.585504 325.849607,271.691392 C336.838259,262.304397 345.660861,251.024748 352.841913,238.631567 C359.422197,227.277996 365.023887,215.705004 364.225992,201.562321 C360.662454,138.37024 334.586553,87.2920763 283.853362,49.1257254 C276.589,43.6601471 268.949159,38.7038134 260.559532,35.0522721 M350.612501,271.561148 C348.061585,271.410956 346.600734,272.366083 345.598672,273.618073 C340.131921,280.443593 333.071727,285.086635 325.814406,289.829415 C321.636019,292.559857 317.413045,295.245711 313.129054,297.849429 C306.179158,302.073577 302.464254,309.17836 297.572456,315.323322 C283.021439,333.599802 266.285599,349.563562 246.432104,362.218405 C222.73698,377.323255 197.62794,387.158479 169.085606,388.409296 C153.823524,389.079293 139.443821,387.66303 124.848216,383.081003 C101.279816,375.682877 82.2770169,361.852312 66.0961832,343.91259 C41.8871214,317.070476 29.5185812,284.562137 22.6414335,249.617872 C22.1216286,246.973086 21.3307743,244.382275 20.6654709,241.766824 C18.8279665,248.301346 19.1037095,254.661036 18.9934123,261.008991 C18.5369697,287.51904 25.5619626,312.467328 38.6638617,334.918675 C51.4278291,356.790375 70.0046935,373.67054 93.5261579,384.417477 C114.792397,394.13419 137.031363,398.846462 160.390901,397.629673 C186.066681,396.292026 210.495164,389.705875 233.955613,379.340285 C273.747088,361.760789 308.280671,337.382761 333.886049,301.606574 C340.517961,292.34161 346.251069,282.513425 350.612501,271.561148 M118.834672,72.2951774 C117.570947,72.8231959 116.831721,72.9522671 116.328344,73.3676417 C101.523878,85.6047639 88.4712607,99.5949075 76.1390952,114.240967 C66.6664432,125.493629 58.5994938,137.824621 51.2307022,150.514665 C46.2215666,159.144835 41.4154248,168.057787 40.3018925,178.356495 C37.596091,203.374011 38.0865615,228.240163 43.1297249,252.973723 C50.321337,288.2524 63.5464405,320.523717 88.8549542,347.006779 C101.738606,360.488851 117.098077,370.111695 134.769097,375.508044 C163.390046,384.249684 190.213387,376.930174 216.090987,364.508832 C232.833867,356.47239 247.549156,345.295999 261.265903,332.952099 C267.514122,327.330462 273.513586,321.138565 278.449972,313.032895 C269.639104,314.038477 262.006303,315.989798 254.165815,316.817027 C227.484453,319.631953 202.456376,314.233257 179.060462,301.790794 C147.227987,284.863694 125.883132,258.58128 113.846657,224.797482 C98.5094792,181.753414 99.6194914,138.295144 111.598471,94.7406574 C113.623716,87.3765593 116.273195,80.1837739 118.834672,72.2951774 M187.800929,33.4201083 C177.116181,35.1895569 168.901386,38.5348475 161.714468,44.3489179 C154.440719,50.2310441 150.051126,58.1395879 145.331814,66.0798129 C138.857133,76.9710746 134.395964,88.7435405 130.96267,100.542994 C127.92715,110.9696 125.842064,121.958251 124.610021,133.026693 C121.689492,159.229318 121.255343,185.078757 128.754379,210.724029 C136.57492,237.476967 149.465612,260.937416 170.648541,279.494333 C204.97209,309.562053 247.612518,314.659192 287.913237,296.585705 C290.534556,295.411157 292.947014,293.96908 294.460667,291.424031 C304.342826,274.820782 311.37486,256.919781 315.751546,238.261954 C321.679434,212.996855 322.559465,187.261233 319.150812,161.432915 C314.269574,124.439938 300.933,91.1876795 275.278341,63.6356739 C261.985182,49.3615736 247.513955,36.4133865 227.335434,32.5729319 C221.316023,31.4277184 214.606668,29.1455051 209.730124,34.1440803 C204.397137,39.6108319 199.35632,45.7769147 195.803342,52.4933101 C180.723134,81.0063094 177.55737,111.040002 186.727291,142.049942 C190.292003,154.106365 197.928324,163.414744 208.595471,170.226183 C210.623062,171.521588 214.801448,172.380498 213.401613,175.347962 C212.168396,177.965761 208.244632,177.219495 205.380425,176.398133 C204.313827,176.091882 203.292992,175.528662 202.342558,174.937281 C190.39878,167.501607 180.595236,157.955033 175.256382,144.770998 C163.923932,116.786017 165.20291,88.4689709 174.024339,60.1190707 C176.881506,50.9338954 181.585564,42.6181906 187.800929,33.4201083 M56.5672092,74.6102452 C54.9596862,74.6489666 54.3753457,75.9760531 53.746417,77.0555576 C47.8126624,87.2580485 42.3881523,97.7468428 38.7413045,108.97721 C37.4916607,112.822358 34.0654072,116.121887 35.0252276,120.859973 C37.2781065,119.683078 38.2743014,118.068515 38.3775584,115.805076 C38.5535645,111.935287 40.5154466,108.674479 42.0971554,105.28812 C46.8880433,95.0316543 51.6660241,84.7693213 56.447525,74.5081616 C63.2636572,65.569395 70.0821362,56.6306284 76.8982684,47.6930352 C72.2575725,51.8479541 67.7365607,56.0521548 64.275106,61.2455101 C61.4120723,65.5388873 57.2524599,69.0648775 56.5672092,74.6102452 M-1.04669185e-12,257.064106 C0.42124143,237.486354 3.10592219,218.180824 9.89154668,199.901996 C17.0162764,180.711457 20.6302697,160.827454 25.0644518,141.010332 C33.1302278,104.944322 46.974873,71.3951992 72.9322628,44.0661347 C94.6349967,21.2158405 120.904504,6.41606849 152.210135,1.78827963 C175.059255,-1.58986543 197.823893,-0.303847024 220.058166,6.68946474 C222.36502,7.41461016 224.745797,8.0693531 227.236871,7.64928505 C248.900883,4.00009049 269.495952,7.84758533 289.443318,16.4284727 C313.800225,26.9067066 335.355113,41.4131351 353.292489,61.0307826 C367.059691,76.0875236 377.934526,93.1284409 384.318856,112.480906 C391.578524,134.491064 394.760715,157.106683 390.284292,180.346538 C389.230602,185.808596 389.656537,191.887849 388.074828,196.938053 C386.127026,203.155764 385.275156,209.587029 383.245218,215.68975 C379.776724,226.122222 378.575188,236.999403 376.196758,247.640736 C373.20348,261.030112 368.133329,273.687302 362.160853,285.952586 C353.860402,302.997023 343.395075,318.841098 329.92591,332.067375 C317.935196,343.843361 305.547882,355.274375 290.613172,363.906891 C279.941331,370.076494 269.730627,377.123781 258.645758,382.677362 C222.84845,400.610044 185.137369,410.028721 144.943427,407.570501 C113.885378,405.670808 85.2796822,396.162955 60.0685586,377.645933 C24.8544178,351.781239 5.53950081,316.760705 1.12409273,273.416253 C0.571433361,267.983529 0.367266205,262.515604 -1.04669185e-12,257.064106" id="Fill-519"></path>
                </g>
            </g>
        </g>
    </g>
</svg>