<?xml version="1.0" encoding="UTF-8"?>
<svg width="339px" height="293px" viewBox="0 0 339 293" version="1.1" xmlns="http://www.w3.org/2000/svg" xmlns:xlink="http://www.w3.org/1999/xlink">
    <!-- Generator: Sketch 61.2 (89653) - https://sketch.com -->
    <title>24</title>
    <desc>Created with Sketch.</desc>
    <g id="Page-1" stroke="none" stroke-width="1" fill="none" fill-rule="evenodd">
        <g id="Artboard" transform="translate(-190.000000, -944.000000)" fill="#000000">
            <g id="Group" transform="translate(1.000000, -376.000000)">
                <g id="24" transform="translate(189.801700, 1320.113314)">
                    <path d="M305.813401,233.465401 C303.630925,235.175007 302.606569,237.652001 302.167727,240.436418 C301.926012,241.972366 300.523829,242.1824 299.468966,242.452276 C298.55608,242.686951 297.713598,242.717458 296.975545,243.470765 C296.670468,243.782882 295.717688,243.850938 295.317567,243.606876 C294.037415,242.826582 292.666914,242.256322 291.485326,241.215539 C287.32454,237.554611 284.27494,233.026559 281.42012,228.406983 C278.507804,223.693538 275.459378,219.030548 273.228793,213.918156 C272.535328,212.32706 272.507167,212.339967 274.253149,211.104404 C275.672932,213.804338 276.996498,216.545341 278.528925,219.164313 C279.744541,221.242359 281.214779,223.16904 282.695578,225.343303 C283.04407,224.467965 283.035856,223.907092 282.494931,223.126798 C279.549761,218.872143 276.75361,214.52127 274.535932,209.539122 C274.890291,209.307967 275.318573,209.027531 275.744508,208.750615 C275.843071,208.835098 276.062492,209.025184 276.437972,209.350209 L276.437972,207.576067 C277.490489,207.366033 278.444442,207.177119 279.685872,206.930711 C280.653906,207.38246 281.113869,209.095587 282.707312,209.307967 C282.655683,211.041042 284.17051,211.904645 284.93203,213.170716 C285.876596,214.740691 287.156748,216.107672 288.062593,217.26814 C289.085775,217.132028 289.850815,216.988877 290.622896,216.934901 C293.333391,216.744815 293.267682,216.830471 294.956168,218.319483 C296.832393,219.973941 298.116065,222.289009 300.535563,223.340353 C300.691622,223.407235 300.865281,223.644257 300.873495,223.809702 C300.948591,225.55099 301.923665,226.183439 303.558176,226.605854 C304.92985,226.961386 305.319411,228.406983 305.383946,229.829113 C305.433228,230.919178 305.633875,232.002203 305.813401,233.465401" id="Fill-351"></path>
                    <path d="M63.8438756,31.2215233 C65.784637,32.1930773 65.784637,32.1930773 66.8289403,30.1596194 C68.1560268,29.7043501 69.7600297,30.6207556 70.9603917,29.4016195 C72.3109457,29.738378 73.6438991,30.195994 75.0144005,30.3849073 C77.2273847,30.6888113 78.3702514,32.4007646 79.6198952,33.8416684 C80.4682449,34.8202627 81.3564894,35.8023772 82.1320899,36.8654544 C83.0391084,38.1092313 84.1233064,39.2215903 85.033845,40.4618471 C85.8587272,41.5859399 86.5639253,42.8003824 87.2961109,43.9901841 C87.4991047,44.3210757 87.7595938,44.7235432 87.7302595,45.070862 C87.6516434,45.9954811 87.9719746,46.6185429 88.6290643,47.2814995 C89.8927886,48.5557841 89.7942251,50.426143 90.2330672,52.0172388 C90.6402281,53.5003841 90.4067266,55.1912167 90.2753087,56.7764456 C90.2260269,57.3819068 90.1462375,58.6737921 88.8132841,57.721012 C88.7194141,57.6529563 88.2535845,58.1492937 87.9332532,58.3370336 C87.5953214,58.5341605 87.0180212,58.9108137 86.898337,58.8063834 C85.4926344,57.5719935 85.150009,58.4543711 84.5069998,59.6746805 C83.56126,61.4711168 82.9839598,61.3385255 80.4447775,60.8856029 C78.8994433,60.6086866 77.2614126,60.5605782 76.3567409,59.2194112 C73.9102551,55.5936841 71.4039273,51.9925979 71.064822,47.3577688 C70.929884,45.500317 70.4112525,43.5619024 68.8788254,42.2266023 C67.5587792,41.075522 66.6822685,39.430451 64.8799653,38.7886152 C64.3366929,38.5950084 63.938919,37.9473057 63.5165042,37.4697423 C62.6188727,36.4512532 62.1366158,35.3189469 62.1131483,33.8862567 C62.0885074,32.3984179 63.2642287,32.0651795 63.8438756,31.2215233" id="Fill-353"></path>
                    <path d="M271.248723,152.408576 C269.664668,150.82452 268.335235,149.273319 266.785207,147.987301 C262.339291,144.298212 260.22839,139.079042 257.569524,134.221272 C256.375029,132.039969 256.716481,129.589963 256.768109,127.230307 C256.777496,126.820799 257.343063,126.423025 257.673954,125.99357 C258.125703,126.887681 258.549292,127.725471 259.16766,128.948127 L259.16766,124.579654 C260.098146,124.118518 261.016898,123.867416 261.64348,123.297156 C262.421427,122.589611 263.300285,122.729242 264.013696,122.908769 C264.844446,123.117629 265.553164,123.811094 266.388606,124.341459 C265.899309,126.634233 266.801634,128.553873 267.91986,130.554477 C268.920748,130.283427 270.102337,130.994492 271.104398,129.966616 C271.316779,129.748368 272.013763,129.730768 272.314147,129.911467 C274.768847,131.388746 277.780899,132.17256 279.022329,135.20456 C279.24527,135.751352 279.492852,136.457724 279.941081,136.700612 C280.616945,137.066705 280.01031,138.209572 281.170778,138.25416 C282.125905,138.290534 281.51575,139.264435 281.687063,139.794801 C281.899443,140.45189 282.189267,141.094899 282.304257,141.768416 C282.409861,142.385611 282.326552,143.035661 282.326552,143.676323 C279.869505,145.783704 278.290143,148.468385 277.079221,151.459316 C275.113819,151.778474 273.119082,152.103499 271.248723,152.408576" id="Fill-355"></path>
                    <path d="M4.73513735,3.21870718 C5.31830446,2.42433267 5.77240037,1.76254948 6.27577801,1.13831427 C6.4599978,0.911852996 6.74395442,0.75227407 7.00796367,0.604428888 C7.7600967,0.183187458 8.2975022,1.37416253 9.13881169,0.855531022 C9.79824813,0.44954346 10.5703285,0.0846240036 11.3224616,0.0118747872 C11.9466968,-0.0479673101 12.8724892,0.704165717 13.2080743,0.462450579 C13.9555138,-0.0761282971 14.4025695,-0.238053972 15.052619,0.490611566 C15.1734765,0.624376254 15.6158387,0.523466051 15.8915817,0.456583707 C17.9309065,-0.0350601911 17.9297331,-0.0409270634 19.0209714,1.9409024 C19.1699899,1.51144734 19.2990611,1.14066102 19.533736,0.463623953 C19.856414,1.33661455 20.1732251,1.95732964 20.3069898,2.61441933 C20.4712622,3.41700746 20.5111569,4.24892995 20.5487049,5.07029207 C20.5874263,5.89634769 20.5569185,6.72592343 21.0204014,7.57661991 L21.3301723,4.50003209 C21.4392961,4.49533859 21.5495933,4.49064509 21.6598905,4.48712497 C21.7197326,5.03157072 21.8253363,5.57601646 21.8288564,6.12163559 C21.8464571,8.88845256 21.7162125,11.6623098 21.8734447,14.4197397 C22.0130762,16.852145 21.5965283,19.0545689 20.2225068,21.0657327 C19.7073954,20.5729154 19.2192717,19.8254759 18.6325844,21.0176243 C17.9907486,22.32007 16.9628726,22.2215065 15.6346127,21.6242589 C15.4140183,23.0405219 15.3142815,24.7102337 12.9687059,24.1763484 L12.9687059,20.6292374 C12.8126471,20.5987296 12.6554149,20.5670485 12.4993561,20.5353674 C12.1273964,21.7451165 11.7566101,22.9548656 11.37409,24.1998159 C10.3262666,23.4981379 9.46735654,22.7518718 9.63749583,21.2757667 C9.68443081,20.8615655 9.20100054,20.408643 9.04494173,19.9463334 C8.37025142,17.9351696 8.38081179,17.9304761 6.71109994,17.8823678 C6.39194208,17.8729808 6.07278423,17.8811944 5.75362638,17.8811944 L4.87711566,17.8811944 C4.06748728,17.071566 3.33764837,16.2936188 2.55735436,15.5708201 C0.894682752,14.0348729 0.365490872,12.001415 0.0991348698,9.88816759 C-0.0322830694,8.8403442 0.194178201,7.74558584 0.0451596447,6.70245594 C-0.119112779,5.55254897 0.473441322,4.70302587 0.99676633,3.89339749 C2.03989622,2.28000761 2.60898283,2.23307263 4.73513735,3.21870718" id="Fill-357"></path>
                    <path d="M191.349198,28.5454082 C189.984563,29.472374 188.670384,30.4016865 187.301056,31.2383025 C187.168465,31.3192654 186.692075,30.8370085 186.178136,30.4779559 C185.863672,31.042349 185.650118,31.5598071 185.31688,31.9822219 C184.924973,32.4809061 184.421595,32.8915871 183.976886,33.3503766 C183.075734,34.2785158 182.207437,35.3122586 180.875657,33.9018626 C180.773574,33.7950855 180.463803,33.9006892 180.253769,33.8783951 C178.757716,33.7164694 177.332066,34.0896025 175.826627,32.8857203 C174.614531,31.916513 173.071544,31.2465162 171.932197,30.0567145 C170.864426,28.939662 169.759108,27.8906652 169.014015,26.4732289 C167.871148,24.2966192 166.742362,22.1446505 167.149523,19.5902143 C167.251606,18.9495518 167.691622,18.3616912 168.089396,17.5039545 C168.894331,18.163391 169.438776,18.6092732 170.074745,19.1314249 C170.595724,17.4030443 170.488947,15.3942272 172.090603,13.8711872 C172.718358,14.340537 173.324993,14.7934595 174.081819,15.359026 L174.081819,13.0251842 C176.184506,12.6661316 178.09476,11.943333 180.20214,12.0700574 C181.410716,12.1428066 182.455019,12.5253267 183.220059,13.2586857 C184.203347,14.199732 185.407229,14.873249 186.209818,16.0794779 C186.934963,17.1707162 187.926464,18.0836015 188.687984,19.2076942 C189.937628,21.055759 190.360043,23.2159414 191.274102,25.182517 C191.710597,26.1200431 191.349198,27.429529 191.349198,28.5454082" id="Fill-359"></path>
                    <path d="M55.8256213,89.7212802 L55.8256213,96.5878675 C56.4627636,94.8524467 56.3524664,93.0994253 56.4064416,91.3557908 C56.4275624,90.6541129 56.0954974,89.7811223 56.9461939,89.3622276 C57.8250514,88.9280791 58.7531906,88.498624 59.7012771,88.3589925 C60.0274752,88.3108841 60.6481903,89.0829645 60.8335835,89.5886889 C61.0330571,90.1319613 60.8793451,90.8043048 60.8793451,91.4895555 C61.4097103,91.2677878 61.7253481,91.0108188 62.0081313,91.0424999 C62.5924718,91.1082088 63.3950599,91.6491345 63.6942704,91.4308868 C65.356942,90.2070572 67.1791925,91.0108188 68.8981861,90.914602 C69.6761334,90.8711872 70.853028,91.3909921 71.226161,92.0222675 C72.1413931,93.5769887 73.9882845,94.0522053 74.9563184,95.8814961 C74.9879995,96.6629635 75.0912565,97.6286507 75.9032316,98.6682605 C76.9674823,100.030548 77.8756741,101.722554 77.5459559,103.716117 C77.3922438,104.643083 77.5189683,105.615811 77.5189683,106.74577 C75.3376651,108.040002 73.0683589,109.29786 70.8929227,110.701216 C68.6165762,112.17028 66.5455703,111.183472 64.6083291,110.168504 C63.1944129,109.426931 61.2970664,109.079612 60.819503,107.104823 C57.6584322,105.682693 57.0963858,102.351483 55.4090734,99.8345947 C54.2744203,98.1425887 54.3096215,96.1736664 53.9881169,94.3830969 C53.7229343,92.9034717 54.7672375,91.1891717 55.2318938,89.5793019 C55.4301941,89.6262369 55.6284944,89.6743452 55.8256213,89.7212802" id="Fill-361"></path>
                    <path d="M117.743418,124.346739 C116.396384,122.999705 114.968387,121.571709 113.360864,119.964185 C113.360864,118.899935 113.250567,117.631517 113.417186,116.400647 C113.480549,115.943031 114.141158,115.480722 114.632802,115.212019 C114.819369,115.108762 115.299279,115.542911 115.648945,115.734171 C116.113601,114.814245 116.385824,113.569295 117.956972,113.872025 C118.249142,113.929521 118.663344,113.947121 118.862817,113.786369 C119.645458,113.152747 120.497328,112.506217 121.498216,112.784307 C123.292306,113.284165 125.291736,113.576335 126.690398,114.814245 C129.454868,117.263077 132.083227,119.924291 133.459596,123.460841 C134.279784,125.569395 135.020184,127.747178 135.416784,129.962509 C135.58927,130.931717 135.327608,132.262323 134.223462,133.034404 C132.405905,134.307515 130.656404,135.68271 128.798952,136.893632 C128.166503,137.305487 127.274739,137.590617 126.536686,137.526081 C121.886603,137.123614 118.572994,134.93527 117.198972,129.683246 C116.998325,128.918206 116.518415,128.121485 116.621672,127.405726 C116.771864,126.369637 117.33743,125.392216 117.743418,124.346739" id="Fill-363"></path>
                    <path d="M125.72166,239.958503 C125.594936,239.316667 125.468211,238.676005 125.341487,238.034169 C125.333273,240.580391 122.645072,241.533172 122.059559,243.698047 C121.850698,244.472475 120.705485,244.817447 120.231441,244.386818 C119.458187,243.687487 118.931342,244.197905 118.494847,244.481862 C117.33438,245.237515 116.348745,245.164765 115.163637,244.472475 C111.747944,242.475391 108.2243,240.640234 106.21079,236.979305 C103.784251,235.666299 103.07436,232.999219 101.566574,230.971628 C100.833215,229.985993 100.599713,228.628399 100.088122,227.304833 C100.979886,226.005907 102.275292,226.349706 103.841747,227.131173 C103.690381,226.393121 103.73145,225.713737 103.421679,225.294842 C102.993397,224.718716 103.451013,224.492254 103.693902,224.390171 C104.796874,223.929035 105.937394,223.591103 106.845585,222.720459 C107.067353,222.506905 107.695109,222.591388 108.084669,222.708725 C108.78048,222.919933 109.376554,223.364641 110.149808,222.735713 C110.369229,222.558533 111.082641,222.912892 111.53087,223.110019 C115.383058,224.802025 118.869153,226.923486 121.150193,230.678284 C121.457618,231.185182 122.149908,231.722588 122.667367,232.204845 C124.151685,233.58356 124.429775,235.592377 125.578509,237.079042 C126.341202,238.068197 126.174583,238.936494 125.72166,239.958503" id="Fill-365"></path>
                    <path d="M319.962068,90.7646448 C320.046551,90.1744374 320.131034,89.5830567 320.224904,88.9330073 C320.457232,89.1019732 320.663746,89.1688555 320.717721,89.2991001 C321.53791,91.3055704 322.559919,93.2287311 323.042176,95.374833 C323.344907,96.7242137 323.730947,98.0160989 322.424981,99.0674424 C321.535563,99.7832009 322.437888,101.838953 320.437285,101.723962 C319.493892,103.238789 317.982585,103.087423 316.536988,102.984166 C316.21079,103.997962 316.007796,104.985943 315.581861,105.867147 C315.101951,106.859822 313.568351,107.140259 311.924453,106.670909 C311.548973,106.564132 311.1864,106.199212 310.842602,106.22972 C308.179042,106.462048 308.183735,106.481996 307.063163,104.381655 C306.503463,103.333832 305.827599,102.332944 305.393451,101.235838 C304.865432,99.8981916 304.04407,99.062749 302.693516,98.4854487 C300.688219,97.627712 299.385773,95.888771 299.039628,93.8201119 C298.726337,91.9474062 299.602848,90.229586 301.274906,88.8802054 C302.103309,89.9620567 302.929364,91.0403878 304.087485,92.5516941 C304.087485,91.0051866 304.071058,89.9644034 304.092178,88.9247936 C304.113299,87.8910507 304.225943,88.1022581 305.861627,87.365379 C307.030308,86.8385339 308.723487,87.4768496 309.395831,85.8552461 C310.550431,85.8106578 311.703859,85.7684163 312.858459,85.7238281 C314.99048,85.6393452 316.88196,85.8716733 317.875808,88.2418897 C318.270062,89.1805893 319.214628,89.8893074 319.962068,90.7646448" id="Fill-367"></path>
                    <path d="M4.48016308,106.312326 C1.95506125,105.765533 1.06799016,103.974964 0.838008766,102.401469 C0.543491777,100.389131 -0.138238783,98.416689 0.0248602666,96.2893611 C0.236067669,93.5354512 0.220813801,90.7416466 0.0142998965,87.9877368 C-0.0854369324,86.6512633 0.772299796,85.6621086 0.75235243,84.4124648 C0.747658932,84.0874401 1.1994081,83.4585114 1.41296225,83.4714185 C3.06037999,83.5652885 3.84302075,81.7817593 5.57022795,81.7711989 C6.71426805,81.7653321 7.85244127,80.6928678 9.13611293,80.0216976 C10.4010106,81.2865953 13.0915582,79.7224871 14.1170875,82.5115982 C13.4459173,84.4711335 15.1179759,86.1924739 15.6847158,88.2001176 C15.7633319,88.4805541 16.0578489,88.7304828 16.0601956,88.9956655 C16.0871832,92.1579096 16.0766228,95.3189804 16.0766228,98.7534474 C15.5650316,98.2993515 15.3432638,98.103398 14.7929512,97.6141008 C14.9654372,98.3568469 14.9325827,98.9259335 15.1860316,99.1183669 C15.4559078,99.3248808 16.0249944,99.0960728 16.4075144,99.2239706 C16.5811739,99.281466 16.6738704,99.7402554 16.6926444,100.024212 C16.7020314,100.154457 16.4192482,100.441933 16.3159912,100.420813 C15.5415641,100.269447 14.7776973,100.05824 13.9410813,99.8493792 C13.369648,101.086116 12.7594933,102.406162 12.304224,103.39297 C11.4324067,103.328434 10.9114285,103.28854 10.3916236,103.249818 C11.3033356,104.169744 10.2555122,104.500636 9.87651221,105.066202 C9.49047201,105.639982 9.20768877,106.282991 8.90143804,106.854425 C6.88792747,106.636177 6.13696781,105.338425 5.59838894,103.619431 C5.21704224,104.539357 4.87324352,105.364239 4.48016308,106.312326" id="Fill-369"></path>
                    <path d="M240.035672,253.470027 C238.380041,253.423092 236.813586,252.976037 236.013344,254.811194 C234.661617,253.030012 234.502038,251.766288 235.878406,250.351198 C236.82884,249.37495 237.455422,248.155814 238.666344,247.312158 C239.725901,246.572932 240.115462,244.938422 241.028347,243.897638 C241.730025,243.097397 242.783715,242.60458 243.681347,241.976824 C243.961783,242.250221 244.264514,242.548258 244.742077,243.016434 C244.235179,243.37666 243.737668,243.731019 243.238984,244.084205 C243.294133,244.212103 243.350455,244.340001 243.405604,244.467898 C244.135442,244.352908 244.864108,244.237917 245.684297,244.108846 C245.902544,244.436217 246.155993,245.276353 246.699266,245.559137 C249.96242,247.258183 252.04516,250.094229 254.028162,253.005371 C254.679385,253.960498 254.9035,255.196061 255.426825,256.253271 C256.71871,258.866376 257.051948,259.348633 256.658868,261.723543 C256.374911,263.44019 256.06162,265.270654 254.713413,266.669316 C254.180701,267.220802 253.612788,268.017524 253.584627,268.723895 C253.514224,270.507424 252.534457,270.792554 251.093553,270.701031 C250.691086,270.675217 250.265151,270.726845 249.873244,270.832449 C247.359875,271.508313 247.10056,271.43791 245.847396,269.511229 C243.991117,266.658756 243.104046,263.396775 242.024542,260.226317 C241.261848,257.986346 240.679855,255.683011 240.035672,253.470027" id="Fill-371"></path>
                    <path d="M199.343398,218.362781 C197.565736,217.353679 195.765779,216.470128 194.316662,215.009277 C191.616727,212.282354 188.718492,209.727918 186.227418,206.822643 C183.608446,203.768349 180.835763,200.75747 179.255227,197.176332 C179.421846,195.762415 181.264044,197.264335 181.299246,195.595796 C181.309806,195.119406 182.477313,194.659443 183.125016,194.207694 C184.732539,193.085948 185.630171,192.898208 186.801198,194.144332 C187.956972,195.375202 189.293446,195.816391 190.805925,196.136722 C193.142114,196.631886 194.75433,198.425975 196.75376,199.530121 C198.892822,200.710535 200.417036,202.611402 202.154803,204.26234 C203.054781,205.116557 204.173007,205.772473 204.946261,206.718213 C205.724208,207.669819 206.438793,208.813859 206.714536,209.983714 C206.881155,210.695952 206.346097,211.770763 205.801651,212.405559 C205.129307,213.188199 204.811323,214.318159 203.634428,214.697159 C202.953871,214.915407 203.050088,215.675753 202.917497,216.302335 C202.764958,217.021614 202.564311,217.896951 201.31584,216.993453 C200.44285,216.363351 199.708317,217.257462 199.343398,218.362781" id="Fill-373"></path>
                    <path d="M328.172873,199.854559 C324.526025,198.352639 322.958397,195.560008 321.400156,192.845993 C320.030828,190.460523 318.782357,187.976489 317.763868,185.422053 C316.748899,182.871137 314.978277,180.453986 315.767958,177.243633 C318.074812,178.851156 317.883552,181.924224 320.098883,183.978802 C319.692896,180.728555 318.006757,178.217534 317.165447,174.793627 C318.329435,175.431943 318.75185,175.663098 319.268134,175.945881 C319.367871,175.388528 319.472301,174.804188 319.575558,174.222194 C320.540072,174.039147 321.491679,173.858448 322.615772,173.644894 C322.913809,174.121284 323.304542,174.825308 323.769199,175.477704 C325.580889,178.015713 325.591449,178.00398 328.881591,179.173834 C329.248857,179.305252 329.592656,179.518806 329.925895,179.730013 C332.474464,181.339883 334.794225,183.15392 336.196408,185.952418 C336.715039,186.987334 337.421411,188.888201 337.389729,189.99 C337.382689,190.248142 337.59859,190.550873 337.78633,190.76912 C338.265067,191.324126 338.049166,191.796996 337.554002,192.077433 C336.116618,192.888235 335.493556,194.484024 334.216925,195.439151 C333.672479,195.846312 333.575089,196.388411 333.476526,197.060754 C333.340414,197.975986 331.545151,199.162268 330.709709,198.969834 C330.192251,198.85015 329.857839,197.899717 329.152641,198.600222 C328.783028,198.968661 328.501418,199.426277 328.172873,199.854559" id="Fill-375"></path>
                    <path d="M224.544665,125.280041 C223.986139,125.372738 223.400625,125.468954 222.59217,125.602719 C222.911328,126.20114 223.138963,126.625902 223.377158,127.071784 C221.857638,128.591304 220.275929,130.173013 218.644938,131.805176 C218.382103,131.805176 218.060598,131.757068 217.757867,131.812217 C214.168515,132.476347 211.778351,130.439369 209.784788,127.983496 C208.22772,126.065029 206.8889,123.951781 205.846943,121.6461 C205.196894,120.20637 204.616073,118.880457 205.08073,116.924442 C206.169621,119.318126 207.140002,121.448974 208.110383,123.580995 C208.282869,123.524673 208.455355,123.469524 208.629014,123.413202 C208.550398,123.007215 208.538664,122.571893 208.381432,122.19876 C207.732556,120.656946 206.994503,119.150333 206.383175,117.595612 C206.112126,116.906841 205.531305,116.049104 207.010931,115.728773 C207.467373,115.63021 207.734903,114.645748 208.083395,114.062581 C208.388472,113.55099 208.684163,113.033532 208.925878,112.620504 C210.42193,112.483219 210.436011,113.791532 211.368843,114.331284 C211.151769,113.507575 210.934695,112.683866 210.648391,111.599668 C211.127128,111.220668 211.766617,110.713771 212.406106,110.205699 C212.809747,110.606994 213.344806,111.246483 213.841143,110.067241 C214.379722,108.792957 215.17527,108.296619 216.464809,109.133235 C216.582146,109.209505 216.825035,109.268173 216.902477,109.204811 C218.396183,107.973941 219.276214,109.200118 219.967331,110.141164 C221.617096,112.390523 222.39387,115.091631 223.381851,117.661321 C223.614179,118.264435 224.119904,119.680698 222.418511,119.748754 C222.322294,119.752274 222.248371,120.281466 222.165062,120.565423 C222.519421,120.651079 223.063867,120.925649 223.198805,120.789537 C224.152758,119.833237 224.666696,121.081707 224.572826,121.301128 C223.999046,122.649336 225.328479,123.951781 224.544665,125.280041" id="Fill-377"></path>
                    <path d="M212.957006,56.9951626 C213.332486,57.3706424 213.709139,57.7472956 214.280572,58.3175556 C214.385002,57.4128839 214.471832,56.6666177 214.566875,55.8522959 C215.883402,55.5765529 217.240996,55.229234 218.619711,55.0250669 C219.452807,54.9018626 220.332838,54.9053827 221.163587,55.0332805 C221.797209,55.1318439 221.299698,56.3122586 222.481286,56.4155156 C223.245153,56.4823979 223.83184,57.7801501 224.375113,58.6836484 C224.816301,59.4170075 224.155692,61.0045831 225.83127,60.9095398 C225.888766,61.9479762 225.946261,62.9875859 226.006103,64.0260223 C226.010797,64.1269325 226.034264,64.2266694 226.049518,64.3275796 L230.804031,69.0820929 C231.313276,69.0820929 231.853028,69.0163839 232.368139,69.0973467 C233.162514,69.2252446 234.017904,70.0125788 233.610743,70.5007026 C232.704898,71.586074 234.328848,72.3358602 233.684665,73.221758 C231.210019,73.9633306 230.429725,74.0454668 228.416214,73.6934545 C228.920765,74.7835194 229.359607,75.7339527 229.911093,76.9284479 C229.589589,77.2370453 229.166,77.9891784 228.748279,77.9868316 C226.111707,77.9668843 223.336676,78.6357077 220.986407,76.7641754 C220.349265,76.2561043 219.579531,75.8583304 219.084367,75.2376153 C217.954408,73.8225257 216.942959,72.3123927 215.911563,70.8198604 C215.403491,70.0841547 214.969343,69.295647 214.481219,68.5446874 C213.725566,67.3818733 213.94968,65.7062946 212.563925,64.8743721 C212.773959,63.463976 211.978411,62.3973786 211.47034,61.1805893 C210.779223,59.5273047 211.207504,57.9455959 212.957006,56.9951626" id="Fill-379"></path>
                    <path d="M114.197598,9.56056145 C115.444895,9.56056145 116.297938,9.55938807 117.149808,9.56056145 C118.291501,9.56290819 119.527065,9.37164816 119.788727,11.0214126 C119.816888,11.2044591 120.243996,11.4848956 120.448163,11.4555612 C121.799891,11.2549142 122.15073,12.5327189 122.977959,13.0947653 C125.222624,14.6201521 125.553516,17.1323468 126.114389,19.4556282 C126.43472,20.780368 126.006438,21.7308013 124.498652,22.6331263 C122.806646,23.6457484 120.688705,24.2746771 119.527065,26.1145283 C118.501535,26.1344757 117.662573,27.7384785 116.464557,26.4548069 C116.290898,26.2694137 115.906031,26.2072249 115.620901,26.2119184 C111.582146,26.2893611 109.054698,23.9707732 106.943797,20.8789315 C105.872506,19.3113032 104.531339,17.9102941 104.111271,15.9800931 C103.938785,15.1880653 103.837875,14.3760902 103.781553,13.5676352 C103.761605,13.3024526 103.917664,12.8424898 104.103057,12.7756075 C105.728181,12.1947871 106.909769,10.8090319 108.485611,10.2446388 C110.428719,9.55000108 112.506765,9.34114042 114.197598,9.56056145" id="Fill-381"></path>
                    <path d="M109.067487,164.782279 C109.535664,165.517985 109.879462,166.060084 110.548286,167.112601 C110.698478,165.997895 110.755973,165.616548 110.799388,165.234028 C110.940193,163.96561 110.937846,163.967957 112.540676,163.804858 C112.741323,163.783737 113.04992,163.810725 113.121496,163.696908 C113.852508,162.544654 114.994202,162.221976 116.146455,162.569295 C117.452421,162.962375 118.854604,163.455192 119.870746,164.311756 C123.835578,167.653526 126.168247,172.132297 127.979937,176.884463 C128.287361,177.695265 128.023352,178.723141 128.023352,179.638373 C127.548135,179.585571 127.175002,179.544503 126.800695,179.502261 C126.881658,180.649822 126.622343,181.500518 125.280002,181.771568 C124.877535,181.853704 124.327222,182.454472 124.287327,182.859286 C124.152389,184.241521 122.732606,183.568004 122.237442,184.287283 C121.446588,183.028252 120.085473,184.552465 119.196056,183.652487 C118.344186,182.79123 117.177852,182.1271 116.614632,181.115651 C115.374375,178.887413 114.18692,176.568825 113.460601,174.142287 C113.089815,172.900857 112.539502,172.075975 111.583202,171.512755 C110.030828,170.601043 108.824599,169.445269 108.066599,167.802545 C107.43415,166.43087 107.407162,166.443777 109.067487,164.782279" id="Fill-383"></path>
                    <path d="M169.042528,127.56378 C169.042528,127.245795 168.966259,126.803433 169.069516,126.406833 C169.138745,126.14165 169.592841,125.96095 169.632735,125.706328 C169.67615,125.428238 169.349952,125.10908 169.346432,124.80635 C169.344085,124.537647 169.721912,124.207929 169.647989,124.009629 C169.513051,123.644709 169.21032,123.306777 168.899376,123.053328 C168.692862,122.884363 168.349064,122.882016 167.924302,122.767025 C168.123776,123.460489 168.284528,124.019016 168.446454,124.578715 C167.316494,123.889944 166.060983,123.340805 166.613643,121.68048 C167.080646,121.879954 167.539435,122.078254 168.108522,122.322316 C168.291568,120.324059 166.43881,121.363669 165.725398,120.417929 C166.769702,120.541134 167.465513,119.821855 168.515683,119.961487 C169.002633,120.026022 169.636255,118.991106 170.382522,118.284735 C171.418611,119.130738 172.580252,120.077651 173.93902,121.18649 C174.071611,120.375688 174.166654,119.798388 174.281645,119.095536 C175.817592,118.798673 177.392261,118.494769 178.98453,118.187345 C179.802372,119.231648 180.441861,120.184428 181.220981,121.004617 C181.896845,121.713335 182.826158,122.186205 183.477381,122.912523 C185.314885,124.963582 186.147981,127.553219 186.903634,130.114696 C187.174683,131.031101 187.472721,132.481392 185.720872,132.726627 C185.729086,134.409246 183.954944,134.660349 183.154703,135.726946 C182.151467,137.062246 180.377325,137.292227 178.462378,136.518974 C175.594651,135.360853 173.710212,133.122055 171.878574,130.941925 C170.962169,129.849513 169.933119,128.819291 169.042528,127.56378" id="Fill-385"></path>
                    <path d="M221.778435,169.062162 C222.29472,169.238168 222.793404,169.407134 223.364837,169.601915 C223.481001,166.910194 220.69893,166.155714 220.311717,163.677547 C220.874937,163.926302 221.333726,164.031906 221.665791,164.295915 C222.198503,164.720677 222.646732,165.248695 223.310862,165.912825 C223.084401,164.563445 222.934209,164.253674 222.164475,163.330228 C223.847094,161.295597 223.847094,161.295597 225.833617,161.288556 C226.926029,162.519426 227.858861,164.14103 229.258697,164.995246 C230.804031,165.939813 231.2593,167.552029 232.398647,168.707803 C233.487539,169.814295 234.210337,171.320908 234.931963,172.734824 C235.328563,173.509251 235.665322,174.498406 235.53625,175.312728 C235.371978,176.341777 234.933136,177.854257 234.205644,178.146427 C233.008802,178.628684 233.276331,179.474687 232.899678,180.202179 C232.383393,181.196028 231.677022,182.162888 230.381616,182.376442 C229.62479,182.50082 228.723638,183.07812 228.168632,182.828191 C226.818078,182.21921 225.422936,181.44361 224.424394,180.379359 C222.539955,178.370542 220.854989,176.161078 219.242773,173.922279 C218.837958,173.361406 219.024525,172.375772 218.904841,171.266933 C219.442246,171.701081 219.6558,171.872394 220.108723,172.237314 C219.874048,170.60515 221.300871,170.04545 221.778435,169.062162" id="Fill-387"></path>
                    <path d="M204.954827,286.424836 C204.080663,285.944925 203.659421,285.713771 203.251087,285.488483 C202.531808,288.087507 202.353455,288.222445 200.228474,287.286092 C200.789347,288.592058 201.23875,289.636361 201.728047,290.772188 C201.173041,291.093693 200.605127,291.424584 200.031347,291.757822 C198.994084,290.721733 197.941567,289.669216 196.79166,288.518136 C196.09937,290.07755 198.00493,290.798002 197.81719,292.303442 C196.107583,292.541637 195.116082,291.378823 194.131621,290.308705 C193.594215,289.724365 193.303218,288.908869 192.749385,288.34565 C190.280606,285.839322 188.062928,283.13 185.995442,280.290434 C185.810049,280.035812 185.55308,279.831644 185.323099,279.61105 C184.076975,278.422422 182.771009,277.273688 182.678313,275.336447 C183.922089,274.574927 184.582699,275.748301 185.428702,276.47462 C186.288786,275.051317 184.298743,274.86123 184.387919,273.812234 C184.464188,272.547336 186.870779,274.160726 186.259451,272.09324 L189.724426,272.09324 C190.715928,272.791398 191.721509,273.482515 192.707144,274.199447 C193.696299,274.918726 194.349868,275.952469 195.560791,276.537982 C196.736512,277.108242 197.515633,278.452929 198.550549,279.364641 C199.225239,279.959542 199.653521,280.777384 200.731852,281.044914 C201.512146,281.237347 201.928694,282.421282 203.113802,282.268743 C203.44352,282.225328 204.038421,282.821403 204.206214,283.244991 C204.526545,284.052272 204.625108,284.94521 204.954827,286.424836" id="Fill-389"></path>
                    <path d="M182.967197,72.4025079 C184.067823,72.4752571 184.828169,71.9061705 185.834924,72.6324893 C185.323333,72.8084955 184.952547,72.9363933 184.547733,73.0760248 C184.925559,74.3585231 185.345627,75.6328078 185.654225,76.9329067 C185.732841,77.266145 185.558008,77.9244081 185.326853,78.0217982 C184.043182,78.5638972 183.654795,79.9449589 182.65508,80.7017854 C182.212718,81.0373705 181.549761,81.1464944 180.971287,81.2122033 C180.681464,81.2438844 180.340012,80.8062158 180.050188,80.8367235 C179.697003,80.8742715 179.373151,81.182869 179.001192,81.3940764 C178.452052,79.453315 178.480213,79.3746989 176.317684,78.6378198 C175.023452,78.196631 174.754749,76.9246931 173.837171,76.1244517 C173.63183,76.5621204 173.43353,76.9845352 173.211762,77.4585784 C172.889084,77.1206466 172.345812,76.8132225 172.346985,76.5081451 C172.363412,72.6958515 172.359892,72.6101952 170.619778,70.3256351 C169.638837,72.0493222 171.518583,73.0466905 171.620666,74.7328296 C171.154837,74.6600804 170.459026,74.7140556 170.378063,74.5157553 C169.560221,72.528059 168.314097,70.6506598 169.591902,68.2663629 C169.988502,67.5259637 170.060078,67.1375767 170.950669,67.1223228 C171.499809,67.1141092 172.090016,66.7914313 172.579313,66.4816604 C173.847731,65.6802456 175.069214,64.807255 176.424461,63.8838093 C176.734232,64.3461189 177.020536,64.7744006 176.951306,64.6699702 C178.020251,65.415063 179.134956,63.4085927 179.313309,65.5007193 C179.364938,66.0944468 180.692024,64.6781839 180.692024,66.232905 C180.692024,66.8336727 181.79617,67.4356138 182.351176,67.9906199 C182.152875,68.504558 181.965136,68.9950285 181.776222,69.485499 C181.933454,69.5946228 182.090687,69.7037467 182.249092,69.8128705 C182.527182,69.2836786 182.805272,68.7544867 183.156111,68.0891834 C183.727544,69.0607375 184.059609,69.6227838 184.494931,70.3608364 C184.022061,70.9921118 183.495216,71.6973099 182.967197,72.4025079" id="Fill-391"></path>
                    <path d="M75.4045475,167.985591 C74.6676683,167.056279 74.0845012,166.320573 73.4367985,165.501557 C73.1070803,166.176248 72.8970463,166.604529 72.62365,167.163056 C71.3927802,166.585755 70.5643778,165.632975 69.8591798,164.639127 C68.3009385,162.441397 67.0958829,160.017205 65.5165209,157.815955 C64.5449669,156.463054 64.4874715,154.762834 64.871165,153.002773 C66.3296694,152.707082 66.6453072,154.421382 67.8609231,154.854358 L67.8609231,151.739048 C70.1583903,151.415197 72.3725479,151.10308 74.4024857,150.81795 C76.5321603,152.73055 77.9343428,154.796862 78.928191,157.183506 C79.4961042,158.543447 80.6659585,159.564283 81.021491,161.120177 C81.1622959,161.735025 80.3737883,162.562254 81.344169,163.01987 C81.3605962,163.026911 81.0555189,163.775524 81.0461319,163.772004 C79.4620764,163.20057 78.9293643,165.498037 77.4051509,165.129598 C77.3065875,165.104957 77.0367113,165.693991 76.885346,166.016669 C76.7175535,166.371028 76.6424575,166.777016 76.4359436,167.103214 C76.2834049,167.347275 75.9877146,167.499814 75.4045475,167.985591" id="Fill-393"></path>
                    <path d="M146.281997,206.68747 C146.739613,207.745854 147.072851,208.516761 147.549241,209.616213 C147.851972,208.814798 147.991603,208.447532 148.139449,208.057972 C148.2826,208.145975 148.517275,208.20699 148.547783,208.321981 C148.836433,209.419086 149.357411,210.356612 150.149439,211.189708 C150.623482,211.688392 150.966108,212.330228 151.288786,212.948596 C151.857872,214.043355 152.665154,214.790794 153.972293,215.023122 C154.177634,214.607748 154.388841,214.178293 154.487404,213.978819 C155.092866,214.431742 155.751129,214.925732 156.241599,215.292999 C156.241599,215.691946 156.283841,215.863259 156.235732,215.89494 C155.656085,216.271593 155.063531,216.627125 154.522606,216.958017 C154.679838,217.832181 154.820643,218.624209 155.033024,219.81049 C154.074377,219.344661 153.549878,219.088865 152.794225,218.720425 C152.37533,219.562908 151.955262,220.410085 151.503513,221.320623 C151.074058,221.368731 150.570681,221.4274 149.954659,221.496629 L149.954659,222.918759 C148.347136,224.122641 147.031783,223.960716 145.637814,222.689951 C144.119468,221.305369 142.407514,220.135515 140.85866,218.486924 C141.509883,218.056295 142.138812,217.640921 142.828756,217.185652 C142.476744,215.89494 141.844295,214.742686 140.932583,213.616246 C140.020871,212.488634 139.521013,211.026609 138.865097,209.757018 C139.802623,208.601244 140.543022,209.456634 141.403106,209.818033 C141.439481,209.495355 141.588499,209.151557 141.486415,208.919228 C140.84458,207.475978 141.122669,206.762566 142.48261,206.700377 C143.759242,206.640535 145.040567,206.68747 146.281997,206.68747" id="Fill-395"></path>
                    <path d="M55.2069009,219.340788 C55.7431331,220.13399 56.1808017,220.782866 56.7275942,221.591321 C56.8695725,221.148958 57.0643527,220.863828 57.0197645,220.625633 C56.8015168,219.46986 56.5187336,218.326993 56.2230432,217.023374 L58.0828417,217.023374 C58.243594,217.357786 58.4407209,217.767293 58.8302813,218.578095 L58.8302813,215.963817 C59.1940273,215.835919 59.5037982,215.797198 59.7208725,215.636445 C60.2172099,215.266832 61.0033708,214.42787 61.0843336,214.493579 C61.8974821,215.162402 62.9018906,214.758761 63.6903983,215.061492 C64.8661195,215.512068 65.9831719,216.298228 65.9679181,217.797801 C65.9632246,218.24603 65.3694971,218.744714 65.4586736,219.121367 C65.5314228,219.427618 66.3527849,219.495674 66.5980202,219.841819 C66.7986672,220.124603 66.8150944,220.882602 66.6085805,221.048048 C65.7790048,221.709831 65.9620512,222.566395 66.0183732,223.368983 C66.089949,224.371045 65.651107,224.980026 64.7616891,225.232302 C63.8112558,225.502178 63.5894881,226.111159 63.3900144,227.020524 C63.1072312,228.305369 62.2260269,229.159586 60.7358414,229.096224 C60.22073,229.075103 59.6868446,229.086837 59.1869871,229.19596 C57.9150492,229.47405 56.3122197,229.168973 55.9156191,228.23614 C54.9475852,225.959794 53.5465761,223.808998 53.8070652,221.130184 C53.9091488,220.085881 54.5380775,219.789017 55.2069009,219.340788" id="Fill-397"></path>
                    <path d="M157.827298,161.770344 C158.622845,162.003846 159.453595,162.246734 160.47443,162.545945 C160.907405,161.514548 161.035303,160.52422 160.122418,159.603121 C161.244164,158.583459 161.99043,160.12058 163.089882,159.95396 C163.191966,159.398954 163.301089,158.814614 163.406693,158.242007 C164.26795,157.319735 165.044724,159.021128 166.085507,158.21854 C167.149758,157.397177 167.41846,159.170146 168.323132,159.37314 C168.831203,159.486957 169.30642,160.016149 169.668993,160.462032 C170.870528,161.93579 171.058268,164.020876 172.676351,165.308068 C173.063565,165.615492 172.857051,166.672703 172.943881,167.612575 C171.149791,166.731371 171.040667,169.577978 169.312287,168.903287 C168.780748,169.763371 169.282952,171.322785 167.338671,171.509352 C167.13333,171.159686 166.811826,170.611721 166.35421,169.830253 C165.964649,170.643402 165.775736,171.037656 165.582129,171.443643 C164.493238,171.701785 163.994554,170.763086 163.636674,170.165838 C162.448046,168.176969 160.908579,166.655102 158.917362,165.4653 C157.692359,164.733115 157.020016,163.539793 157.827298,161.770344" id="Fill-399"></path>
                    <path d="M142.257675,76.7517377 C140.747542,77.9344991 139.634009,78.8074897 138.196626,79.9351026 L135.508425,79.9351026 C134.461775,78.4214495 134.121496,76.4302331 132.578509,75.1805893 C132.416583,73.0732087 130.959252,71.767243 129.693181,70.2981782 C129.290713,69.8300017 129.377543,68.9405839 129.20623,68.0699401 C129.66854,67.9408689 130.126156,67.9502559 130.365524,67.7261413 C132.821397,65.4298475 135.135292,66.7205594 137.09248,68.2870143 C138.763365,69.6234878 140.173761,71.3917631 141.357696,73.1917196 C142.028867,74.211382 142.011266,75.6839669 142.257675,76.7517377" id="Fill-401"></path>
                </g>
            </g>
        </g>
    </g>
</svg>