<?xml version="1.0" encoding="UTF-8"?>
<svg width="299px" height="270px" viewBox="0 0 299 270" version="1.1" xmlns="http://www.w3.org/2000/svg" xmlns:xlink="http://www.w3.org/1999/xlink">
    <!-- Generator: Sketch 61.2 (89653) - https://sketch.com -->
    <title>62</title>
    <desc>Created with Sketch.</desc>
    <g id="Page-1" stroke="none" stroke-width="1" fill="none" fill-rule="evenodd">
        <g id="Artboard" transform="translate(-992.000000, -1131.000000)" fill="#000000">
            <g id="Group" transform="translate(1.000000, -376.000000)">
                <g id="62" transform="translate(991.501416, 1507.082153)">
                    <path d="M296.475355,140.074275 C296.368578,140.371138 296.102222,141.116231 295.76429,142.053757 C296.062327,142.198082 296.385005,142.351794 296.834407,142.567695 C297.062042,143.396098 298.322246,144.272608 297.556033,145.393181 C296.866089,146.40111 298.688339,147.466534 297.295544,148.284376 C297.532565,150.398796 296.043553,151.924183 295.062612,153.401462 C294.173194,154.741455 293.95612,156.414687 292.610259,157.578675 C291.440405,158.591297 290.782142,160.197647 289.895071,161.547027 C289.12299,161.582228 288.406059,161.612736 287.412211,161.657324 C287.591737,162.229931 287.725502,162.659386 287.937882,163.336423 C287.670353,163.636807 287.231511,164.133144 286.755121,164.67055 C287.049638,165.574048 287.325381,166.423571 287.650406,167.42094 C287.188096,167.947785 286.729307,168.47111 286.228276,169.042543 C286.62253,169.183348 286.992142,169.314766 287.621071,169.538881 C286.901793,170.049298 286.310412,170.469367 285.688523,170.910555 C285.809381,171.052534 285.997121,171.271955 286.291638,171.615753 C284.173697,172.404261 282.286911,170.505741 279.950722,171.42332 C278.507472,172.464103 277.436181,174.587911 275.292426,175.372898 C274.465197,175.676802 275.172742,177.192802 273.755305,177.014449 C273.250754,176.951087 273.623887,178.575037 272.441126,178.2594 C271.999937,179.730811 270.686931,180.322192 269.650841,181.249158 C268.790758,182.016545 268.00577,183.017433 267.313479,184.018321 C266.736179,184.851417 266.120158,185.658699 265.50883,186.468327 C264.95617,187.201686 264.307294,187.876377 263.852025,188.664884 C263.464811,189.337228 263.497666,190.485961 262.974341,190.789865 C262.270316,191.1982 261.789233,191.639389 261.639041,192.588648 C260.94675,192.175621 260.524335,191.924518 260.099573,191.67107 C258.77718,192.317599 257.452441,192.932447 256.135914,191.315537 L256.135914,187.956166 C253.604946,186.530516 250.958986,185.285566 249.773878,182.062306 C249.866575,180.999229 249.35029,179.492616 250.373472,178.248839 C248.88798,175.282549 250.177519,172.771527 251.607862,170.298054 C253.329203,167.321203 255.587949,164.779674 258.236255,162.438792 C256.679187,160.102603 255.051716,157.925994 253.72463,155.580418 C252.811745,153.967028 251.802643,152.206966 251.752187,150.361248 C251.700559,148.448648 251.098618,146.452738 252.239138,144.51315 C252.748382,143.644853 252.259085,142.386996 252.830519,141.242956 C253.173144,140.555358 253.385525,139.791491 253.913543,139.132055 C254.198673,138.776522 254.185766,138.181622 254.420441,137.238229 C254.947286,136.748931 256.268506,136.089495 256.544249,135.132021 C256.943196,133.740399 258.724378,134.270765 258.698564,132.643294 C259.158527,132.991786 259.362694,133.146672 259.680679,133.387214 C260.417558,133.168966 261.250654,132.922557 262.120124,132.666762 C262.436935,133.267529 262.703291,133.770907 263.025969,134.383408 C262.388827,135.536836 261.693016,136.79704 260.892774,138.244984 C262.474483,138.088925 263.695966,137.966894 264.739096,137.863637 C265.165031,138.289572 265.391492,138.51486 265.642594,138.765962 C265.215486,139.603751 264.784858,140.450928 264.216944,141.569154 C265.220179,141.672411 265.9993,141.7522 266.964987,141.850764 C266.726792,142.981897 266.489771,144.11655 266.256269,145.232429 C265.847935,145.596175 265.406746,145.990429 264.95265,146.396416 C265.240127,146.683893 265.358638,146.837605 265.384452,146.822351 C265.802173,146.591196 266.209334,146.338921 266.705671,146.038537 C266.873464,146.486766 266.977894,146.762509 267.112832,147.119215 C266.206987,147.578004 265.34573,148.0145 264.363616,148.510837 C264.818885,148.663376 265.180285,148.784233 265.849108,149.007174 C265.086415,149.771041 264.409378,150.449252 263.527,151.335149 C264.652266,152.223394 265.649634,153.011901 266.718579,153.856731 C268.293247,154.155941 269.558145,153.491812 270.796055,152.421694 C273.660262,149.949394 276.808426,147.791558 279.630391,145.306351 C282.519239,142.761302 285.592307,140.267881 287.649232,136.858055 C288.130316,136.060161 288.975145,135.48286 289.701464,134.757715 L293.069049,134.757715 C293.253269,134.991216 293.57008,135.393684 293.898625,135.806712 C293.530185,136.856882 293.152358,137.938733 292.659541,139.344436 C293.680377,139.063999 294.508779,138.836365 295.58711,138.539501 C295.75725,138.832844 296.021259,139.289287 296.475355,140.074275" id="Fill-25"></path>
                    <path d="M93.3995549,207.467623 C92.3611185,207.789128 91.5080752,208.05431 90.4051032,208.395762 C90.673806,207.819636 90.8509855,207.439462 91.0751001,206.957205 C90.3405676,205.850713 89.5098185,204.860385 87.9902986,205.079806 C87.8729612,204.631577 87.7978652,204.342927 87.6922615,203.941633 L85.0486488,203.941633 C84.7846396,203.677624 84.5558316,203.552073 84.4959895,203.371373 C84.0911753,202.151064 84.0055189,200.700773 83.2709865,199.743299 C82.3252467,198.512429 82.7957699,197.305027 82.752355,196.112879 C82.7159804,195.144845 83.1067141,194.153343 83.3449091,193.181789 C84.1991257,189.708601 85.5203454,186.405552 87.2029643,183.264428 C88.239054,181.333054 89.3995213,179.452135 90.6714592,177.667432 C91.9140628,175.923798 93.3702205,174.331529 94.7747497,172.619575 C94.393403,172.375513 93.9756817,172.091557 93.5415332,171.834588 C89.3443727,169.351727 85.6681906,166.225858 82.2595378,162.75971 C80.6508414,161.124026 80.6414544,158.928642 80.1721046,156.908091 C79.9831913,156.099636 80.1415969,155.209045 80.1415969,154.356002 C81.0016803,152.715624 82.7347544,152.577166 84.4162,151.908343 C84.9829399,152.905711 85.5649336,153.93124 86.2220233,155.084667 C86.337014,155.000184 86.5364877,154.853513 86.8943669,154.589503 C87.1137879,154.807751 87.4998281,155.017785 87.6077785,155.326382 C88.276602,157.228422 89.8301498,158.196456 91.4810876,159.020165 C94.8404587,160.699264 98.2303375,162.312654 101.837291,164.064502 C102.680947,163.172737 103.524603,161.804583 104.749606,161.120506 C105.878392,160.48923 105.937061,158.683407 107.697123,158.857066 C107.44602,158.548469 107.271188,158.333741 107.010699,158.014583 C107.550451,157.636757 108.097243,157.254237 108.858763,156.721525 C109.099305,156.191159 109.466571,155.382704 109.825624,154.590677 C110.37007,154.558996 110.875794,154.529661 111.60446,154.48742 C111.294689,154.088472 111.132763,153.880785 110.881661,153.556934 C112.240429,153.358634 112.330778,151.951758 113.186168,151.196104 C114.089667,150.397036 114.729156,149.299931 115.585719,148.201653 C115.775806,148.341284 115.974106,148.486783 116.351933,148.764873 C116.518552,148.372965 116.674611,148.003352 116.870564,147.53987 C117.101719,147.726436 117.315273,147.897749 117.70014,148.209866 C118.119035,145.962854 119.393319,144.160551 120.747393,142.540121 C122.142536,140.869236 123.396873,138.950769 125.68026,137.832543 C125.966563,138.068391 126.350256,138.384029 126.784405,138.740735 C125.88208,140.473809 125.007916,142.191629 123.158678,143.096301 L123.158678,145.65543 C123.596347,145.548653 124.041055,145.5686 124.133752,145.397288 C124.504538,144.70617 124.766201,143.956384 124.912873,143.603198 C126.433566,142.350034 127.67617,141.326852 129.243798,140.03614 C129.332974,141.231809 129.389296,142.012103 129.445618,142.760715 C128.968055,142.956669 128.604309,143.105688 128.221789,143.26292 C128.320352,143.400205 128.443556,143.665387 128.509265,143.651307 C129.286039,143.491728 130.0546,143.289907 130.999166,143.056406 C131.266695,143.528102 131.592893,144.101882 131.921438,144.679183 C131.745432,144.875136 131.535398,145.107464 131.308937,145.358566 C131.442702,146.285532 132.557407,147.103374 131.694977,148.165278 C131.443875,147.938817 131.220934,147.736996 130.993299,147.529309 C130.887695,147.72761 130.682355,147.937644 130.724596,148.070235 C130.841934,148.445715 131.061355,148.789513 131.307763,149.27529 C131.131757,150.900414 129.832832,151.979919 128.627776,153.077024 C127.487256,154.11546 126.232919,155.027172 124.766201,156.204067 C125.369315,156.550212 125.893814,156.852943 126.484021,157.193221 C126.115581,157.900766 125.89264,158.327874 125.657965,158.776103 C125.794077,158.927469 125.998244,159.15041 126.315055,159.500075 C125.619244,159.611546 125.032557,159.706589 124.191247,159.843874 C124.420055,160.427041 124.616009,160.923379 124.84247,161.499506 L122.711622,161.499506 C122.316195,162.310307 121.971223,163.017852 121.642678,163.691369 C121.947755,164.019914 122.16131,164.249895 122.468734,164.580787 C121.815164,164.701644 121.22965,164.810768 120.37778,164.970347 C120.584294,165.514793 120.773208,166.005263 120.994975,166.588431 C120.448183,166.669393 119.859149,166.756223 119.091762,166.868867 C119.31705,167.476675 119.500096,167.969492 119.802827,168.786161 C118.969731,168.46231 118.363096,168.226461 117.630911,167.942505 C117.285939,168.599594 116.933926,169.270765 116.591301,169.923161 C116.713332,170.155489 116.76144,170.410111 116.905765,170.488727 C117.160388,170.627185 117.504186,170.601371 117.756462,170.742176 C118.73623,171.288969 118.965038,172.556213 119.928378,173.099485 C120.966814,173.686173 121.418564,174.692928 122.080347,175.589386 C122.676421,176.396668 123.118783,177.077225 123.051901,178.099234 C123.028433,178.4489 123.340551,178.819686 123.534158,179.257355 C123.365192,179.544831 123.123477,179.954339 122.793758,180.515212 C121.928981,180.614949 121.300053,181.773069 119.721864,181.161741 C116.965607,180.092797 114.096707,179.135324 111.103429,178.775098 C110.936809,178.75515 110.799525,178.489968 110.527302,178.217745 C109.651964,179.204553 108.782494,180.18432 107.691256,181.41519 C107.677175,181.531354 107.618507,182.034732 107.553971,182.578004 C106.941469,182.674221 106.354782,182.766918 105.44307,182.910069 C106.045011,183.754899 106.494414,184.386174 107.164411,185.327221 C106.407584,185.105453 105.903033,184.958781 105.262371,184.771041 C105.129779,184.928273 104.861077,185.246258 104.568906,185.59123 C104.939693,186.615586 104.641656,187.242168 103.441293,187.923898 C103.082241,189.21461 102.737269,190.454867 102.449792,191.489783 C101.907693,191.689257 101.604962,191.800727 101.214229,191.945053 L101.914733,192.645557 C100.958433,193.377743 99.861328,193.970297 99.1197553,194.859715 C98.4497585,195.661129 98.1704954,196.787569 97.6495171,197.923395 C97.6999722,198.000838 97.9100063,198.315302 98.2432446,198.813987 C97.5380466,199.540305 96.8457556,200.253717 96.1792789,200.938968 C96.4385947,201.262819 96.6298547,201.501014 96.9607463,201.914042 C96.4902232,202.451447 96.0279136,202.979466 95.5128023,203.567327 L95.5128023,205.432992 C94.7571491,206.160484 93.9909356,206.898537 93.3995549,207.467623" id="Fill-27"></path>
                    <path d="M172.094729,220.220092 C173.573181,222.008314 173.574354,222.011834 175.368444,221.020333 C175.418899,221.59294 175.401298,222.091624 175.524502,222.551587 C175.612506,222.877785 175.889422,223.153528 176.067775,223.430444 C175.84014,223.659252 175.688775,223.809444 175.496341,224.001877 C175.943397,224.210738 176.370505,224.411385 177.069837,224.738757 C176.342344,225.774846 175.65592,226.751094 174.97067,227.728515 C175.854221,229.317264 173.985035,229.598874 173.716332,230.44957 C173.302131,231.763749 171.703995,232.046533 171.658234,233.451062 C171.605432,235.089093 169.92516,235.290913 169.195321,236.244866 C168.561698,237.074442 167.435259,237.616541 167.289761,238.674925 C167.542036,239.106727 167.74151,239.448179 168.068881,240.010225 C167.121968,240.545284 166.297086,241.01346 165.469857,241.481637 L163.473947,242.42503 C162.867312,243.140788 162.260678,243.856547 161.449876,244.811673 L161.449876,245.439429 C159.407031,246.940175 157.499124,248.344704 155.283793,249.973348 C155.917415,250.296026 156.301109,250.491979 156.937078,250.817004 C156.057047,252.047874 155.166456,253.293997 154.208982,254.632818 C156.667202,255.470607 158.979923,256.260288 161.365393,257.07461 C161.129545,257.548653 160.930071,257.948774 160.660195,258.490873 C161.723272,258.869873 162.71712,259.224232 163.851773,259.629046 L163.851773,261.020668 C164.565185,261.676584 165.190594,262.250365 165.838296,262.846439 C165.878191,263.598572 165.914566,264.316677 165.95094,265.003101 L167.111408,266.162395 L164.167411,268.612401 C163.473947,269.384481 162.751148,269.24133 161.974374,268.726218 C161.738526,268.570159 161.407634,268.480983 161.121331,268.48685 C157.817109,268.559599 154.830871,267.301742 151.824685,266.20229 C149.607007,265.392661 147.472639,264.356572 145.172825,263.366244 C144.54507,263.991652 143.567649,264.465696 143.442098,265.756407 C142.113838,266.070872 140.75155,266.394723 139.477266,266.69628 C138.820176,266.030977 138.295678,265.500612 137.770006,264.9679 C137.96948,264.747305 138.175993,264.519671 138.481071,264.182912 C138.16426,263.523476 137.822808,262.813584 137.618641,262.39117 C136.629486,262.543708 135.754149,262.67982 134.899932,262.811238 C134.427062,261.877232 134.002301,261.033575 133.566979,260.171145 C133.354598,260.383526 133.204406,260.533718 133.149257,260.588866 C132.441713,259.869588 131.728301,259.145616 130.742666,258.145901 C131.048917,255.925876 129.627961,253.376134 130.009307,250.619877 C130.09027,250.042577 129.647908,249.207134 129.182078,248.770639 C127.294119,246.998843 127.213156,244.43854 126.326085,242.259584 C125.98698,241.427661 125.62558,240.371624 125.596246,239.366043 C125.546964,237.76908 125.360398,236.128702 125.633794,234.577501 C126.065596,232.123975 126.530252,229.50735 129.387419,228.541663 C130.331985,228.222505 131.371595,228.187304 132.616545,227.98079 L132.616545,232.971152 C133.69957,232.274167 134.424715,231.807164 135.506567,231.11018 C135.656759,231.551369 135.837458,232.07704 136.015811,232.602712 C136.176563,232.480681 136.337316,232.35865 136.498068,232.236619 L136.498068,235.180616 C137.048381,234.901353 137.446155,234.699532 137.821634,234.508272 C139.179229,235.695727 139.144027,237.216421 138.956288,238.780529 C139.410383,238.941281 139.779996,239.071526 140.37255,239.28156 C140.120275,239.96681 139.867999,240.647367 139.562922,241.469903 C139.932535,241.403021 140.117928,241.422968 140.221185,241.339658 C140.469941,241.142531 140.641253,240.790519 140.913476,240.687262 C143.646265,239.648826 145.02146,236.743551 147.76481,235.733275 C148.316296,233.746752 150.410769,233.323164 151.634599,231.984344 C152.90771,230.592722 154.704146,229.686877 156.240093,228.526409 C157.726759,227.402317 158.564548,225.50849 160.504136,224.913589 C161.778421,222.593828 163.612405,220.836113 165.894618,219.52428 C165.814829,217.953132 167.976185,217.758352 167.925729,216.101547 L170.811057,216.101547 C171.017571,216.306888 171.319128,216.608445 171.620686,216.910002 C170.239624,217.5976 169.735073,218.931726 168.851522,220.342122 C170.762949,220.73755 171.863574,218.410748 173.664704,219.484386 C173.143726,219.728448 172.717791,219.927921 172.094729,220.220092" id="Fill-29"></path>
                    <path d="M164.672314,186.397925 C164.523296,184.901872 166.628329,184.7376 165.630961,183.343631 C165.376339,183.571266 165.149878,183.771913 164.923416,183.97256 C164.84832,183.89629 164.718076,183.829408 164.705169,183.744925 C164.468147,182.177297 164.56319,180.690631 165.675549,179.412827 C166.899379,178.009471 168.112648,176.594381 169.286022,175.148784 C169.656809,174.692341 169.885617,174.120908 170.250536,173.477899 C169.670889,171.967766 168.876515,170.402484 168.186571,168.84659 C167.446171,167.175704 167.462599,165.364014 166.657664,163.71073 C166.229382,162.833046 167.346435,161.292405 167.084772,160.217594 C166.790255,159.014885 166.080363,157.991703 167.117626,156.858223 C167.138747,153.687765 169.294236,151.711802 171.179849,149.510552 L176.510489,149.510552 C176.822607,149.806242 177.131204,150.099586 177.631062,150.572456 C176.82026,151.606199 176.008285,152.639942 175.110653,153.783982 C175.21039,153.997536 175.450932,154.507954 175.772436,155.192031 C176.07282,155.192031 176.647774,155.364517 176.853114,155.161523 C177.743706,154.287359 178.772755,154.640545 179.710281,154.537288 C180.056427,155.287074 180.345077,155.913656 180.666581,156.609467 C180.185498,157.210235 179.68916,157.83095 178.935854,158.770823 C180.075201,158.916322 180.839067,159.013712 181.843476,159.14161 L181.843476,162.20881 C184.004832,162.279213 184.241853,159.661414 186.061757,159.671975 C186.887813,158.414117 188.092868,157.53878 189.17824,156.535545 C190.43023,155.379771 191.621205,154.154768 192.80162,152.923898 C193.888165,151.789245 194.991137,150.659286 195.967384,149.434283 C196.971793,148.171732 197.835396,146.796537 198.416217,145.963441 C199.73861,145.489398 200.483703,145.221868 201.408322,144.890977 C201.711052,145.321605 202.20739,145.759274 202.334114,146.286119 C202.431504,146.690933 202.108826,147.229512 201.891752,147.667181 C201.64417,148.164691 201.305065,148.615267 201.308585,149.490605 C202.241418,149.097524 203.17425,148.70327 204.200953,148.270295 C204.748919,149.338066 205.335606,150.480933 206.225024,152.214007 C206.225024,152.177632 206.173395,152.807734 206.242624,153.423756 C206.2966,153.902493 206.499593,154.364802 206.67912,154.978477 C206.552395,155.199071 206.320067,155.607406 206.10534,155.985232 C206.428018,156.333724 206.642745,156.564879 206.834005,156.77022 C204.980073,159.738857 203.311535,162.811925 201.278077,165.685519 C199.570817,168.097977 199.810186,168.266943 198.559368,168.949847 C198.758842,169.171614 198.960663,169.394556 199.122588,169.574082 C196.590446,172.411301 194.079425,175.226227 191.530855,178.083393 L191.530855,179.145297 C193.532632,180.420755 195.469874,181.653972 197.495118,182.94351 C197.201774,183.518464 197.022248,183.870476 196.745332,184.416095 C197.511545,185.074358 198.026656,186.340429 199.509802,185.873426 C199.834826,186.518782 200.100009,187.045628 200.360498,187.564259 C200.173932,187.824748 199.941604,188.147426 199.623619,188.589788 C200.426207,189.39355 201.146659,190.115175 201.92578,190.895469 C201.628916,191.659336 201.376641,192.310559 201.096204,193.032184 C201.301545,193.384196 201.547953,193.808958 201.775588,194.199692 C201.662944,194.44258 201.627743,194.693682 201.488111,194.786379 C201.173647,194.991719 200.711337,195.031614 200.481356,195.292103 C199.104988,196.845651 198.858579,196.932481 197.127852,196.3411 C194.886706,195.574886 192.476595,195.124311 190.429057,194.006085 C187.685707,192.508859 185.220448,190.502389 182.386748,188.54168 C181.196947,189.421711 179.861646,190.629113 178.575628,192.003135 C177.331851,193.332568 175.692647,194.386258 173.413954,195.064469 C173.815248,194.401512 173.97952,194.130462 174.335053,193.539082 C172.907056,193.805438 171.709041,194.028379 170.512199,194.25132 L170.306858,193.839466 C171.02731,193.277419 171.746589,192.716546 172.467041,192.155673 L171.353508,191.042141 L169.168685,191.042141 C168.877688,190.311129 168.553837,189.492113 168.171317,188.529946 L165.51949,188.529946 C165.154571,187.611194 164.8272,186.787485 164.672314,186.397925" id="Fill-31"></path>
                    <path d="M178.552278,123.608076 C177.453999,123.870912 176.485966,124.10324 175.120158,124.430612 C173.717975,123.394522 172.041223,122.10381 170.310496,120.892888 C168.24653,119.448464 166.453614,117.608613 164.097478,116.591297 C163.551859,116.355449 162.979252,116.185309 162.221252,115.913086 C161.3025,114.536718 161.195723,111.981109 158.500482,112.262719 C157.281346,111.148013 157.132327,109.211945 155.349971,109.024205 C154.766804,108.030357 154.398365,106.893357 153.632151,106.183465 C150.134322,102.939085 147.603353,99.0423085 145.426744,94.3405971 C145.23783,92.8891329 145.236657,90.9542384 144.923366,89.013477 C144.430549,85.9568366 146.059192,83.3319979 148.706325,81.6376452 C149.437338,81.1706422 149.813991,80.1439395 151.028433,80.2530633 C151.873263,80.3293327 152.765027,79.8799303 153.886773,79.6041873 C154.218838,79.8998776 154.658854,80.2906113 155.21386,80.7834286 C154.311535,82.298255 152.605449,83.2545552 152.476377,85.2891865 C154.484021,85.9591833 155.383999,83.7285985 157.40455,83.4716295 C157.650959,83.6922239 158.088627,84.0817842 158.499308,84.4502238 C157.78355,85.5238614 157.301293,86.2466601 156.413049,87.5784401 C157.79411,87.1419448 158.776225,87.1349045 159.138798,86.6573411 C160.055203,85.4487654 161.537175,84.9641618 162.397258,83.6194747 C163.198673,82.3674841 164.512853,81.4346514 165.856366,80.5616608 C167.75606,79.3284443 169.295527,77.5554755 171.076709,76.1216119 C173.694508,74.0142314 176.148034,71.7050304 179.063869,69.9531824 C180.217296,69.2620648 181.07034,68.0581826 182.027813,67.0549474 C182.898457,66.1420621 184.281865,65.7431148 184.555262,64.3820004 L188.859199,64.3820004 L188.859199,67.1582044 C188.739515,67.2778886 188.326487,67.6909164 187.828976,68.1896005 C188.399236,68.087517 188.968323,68.0065541 189.526849,67.8798297 C190.094762,67.7507585 190.653289,67.5770991 191.514546,67.3412508 C191.383128,69.4075632 191.482864,71.236854 192.975397,72.5698074 C192.660932,72.9933956 192.481406,73.2351107 192.120007,73.7244079 C192.575276,73.97551 193.103295,74.2641601 194.085409,74.802739 C193.07396,75.0796554 192.730161,75.1735253 192.260812,75.3025965 C192.439165,75.7109308 192.678533,76.0922775 192.765363,76.5064787 C192.853366,76.914813 192.78531,77.3548284 192.78531,77.7737231 C191.599029,79.4023669 190.411574,81.0310106 189.107955,82.8192333 C188.868586,82.8462209 188.364035,82.9013695 187.622462,82.9823323 C187.84775,83.2921032 187.986209,83.48571 188.168082,83.7368121 C187.976822,84.1944281 187.764441,84.7024993 187.526246,85.2680658 C184.710147,85.1319543 184.6902,88.0337094 182.948912,89.163669 C183.317352,89.6482726 183.500398,89.8888144 183.583708,89.9991116 C182.425587,91.1584056 181.256906,92.3270865 180.076491,93.5063278 C180.171535,93.5931576 180.020169,93.4558727 180.085878,93.5145415 C179.560207,94.0390398 179.018108,94.5811388 178.476009,95.1244112 C178.300002,94.9871264 178.12517,94.851015 177.949163,94.7137302 L177.949163,96.3986959 C177.577204,96.0924451 177.361303,95.9140922 176.876699,95.5163183 C176.983476,96.2344235 177.055052,96.7119869 177.154789,97.383157 C176.355721,98.4180733 175.394727,99.6630236 174.353944,101.012404 C173.885768,100.669779 173.56661,100.433931 173.282653,100.22507 C172.1304,101.572104 170.948811,102.953166 169.756663,104.347134 C170.215452,104.575942 170.639041,104.785976 171.256236,105.092227 C170.681282,105.820893 170.187291,106.447475 169.723809,107.035335 C169.798904,107.294651 169.798904,107.534019 169.917415,107.667784 C171.86639,109.852607 174.177938,111.806276 175.697458,114.253935 C177.409411,117.010192 179.548473,119.855625 178.552278,123.608076" id="Fill-33"></path>
                    <path d="M222.951477,77.3439161 C223.148604,77.1467891 223.299969,76.9954238 223.456028,76.839365 C223.341037,76.6915199 223.243647,76.5213806 223.106362,76.3958295 C222.276786,75.639003 221.228963,74.9901269 220.557793,74.2485542 C219.89953,73.5234088 219.162651,72.9707495 218.496174,72.3066195 C217.610276,71.4230685 216.622295,70.1581709 216.57536,69.021171 C216.49205,66.9865397 216.368846,64.9460415 216.852276,62.8140201 C217.686545,59.1331445 219.6144,56.3463801 222.167663,53.8036777 C225.408523,50.5757246 228.638823,47.3372111 232.039262,43.9367719 C230.74855,42.8255863 230.682841,40.7275927 228.638823,40.3192584 C227.779913,38.6495466 226.924523,36.9798347 226.065612,35.3101229 C225.273585,33.7694822 225.415563,32.1068106 225.423777,30.4605662 C225.430817,29.2883652 225.426123,28.1161641 225.426123,26.943963 C226.504455,25.5675947 227.582786,24.1912265 228.643516,22.8394991 L233.974156,22.8394991 C233.11994,24.2980036 232.388927,25.5453006 231.671996,26.7703036 C233.643265,28.2018204 234.367237,25.1005917 236.099137,26.0463315 C237.179815,27.5259567 235.168652,28.2229411 234.531509,29.654458 C235.761206,29.359941 236.475791,29.187455 237.349955,28.9774209 C237.868586,30.4981142 237.60927,31.8287209 236.791428,33.2578909 C237.227924,33.4280302 237.571722,33.5617949 238.090354,33.762442 C238.459967,34.1590425 237.69258,34.2165379 237.562335,34.8008784 C238.076273,35.5870392 238.701682,36.5445128 239.474936,37.7284476 C244.755121,32.1877734 251.487943,28.4740433 255.605314,22.1460348 L258.815667,22.1460348 C258.568085,23.2020718 258.352184,24.1243442 258.056494,25.3857217 C258.948258,25.0712574 259.634682,24.8295422 260.575729,24.4974772 L260.575729,26.9803376 C261.089667,27.1152757 261.378317,27.1903716 261.666967,27.266641 C261.74793,27.4461673 261.874654,27.6210001 261.896948,27.8075666 C261.93567,28.1220309 261.854707,28.4552693 261.915722,28.7638668 C262.566945,32.0868632 260.912487,34.7234356 259.175893,37.2133362 C257.298494,39.907404 255.118364,42.3914377 252.914767,45.1617748 C254.487089,47.0497343 257.00163,47.9673131 259.214614,49.7297216 C259.255682,50.0207184 259.322565,50.511189 259.401181,51.0755821 C259.987868,51.8089411 260.935955,52.5188327 261.204657,53.4293712 C261.793691,55.4252812 263.251022,57.2839063 262.260694,59.8606366 C262.018979,59.9709338 261.486267,60.2325963 260.940648,60.4649245 C260.396202,60.6960793 259.841196,60.8955529 259.222828,61.1360947 C258.375652,60.2748378 256.461878,60.5482341 256.718847,58.871482 C254.765178,58.3070889 253.046185,57.8095781 251.379993,57.3273212 C250.998646,56.6643646 250.652501,56.0635969 250.261767,55.3842131 L246.727563,55.3842131 C246.638387,55.0028664 246.569158,54.7142163 246.484675,54.3575104 C245.177536,53.3519285 244.079257,54.5358634 243.31539,54.7400305 C242.271087,55.9509529 241.472019,56.8779188 240.588468,57.8999279 C240.335019,57.7074945 240.132025,57.5526091 239.780013,57.2862531 C239.402187,57.8201385 238.995026,58.3950919 238.498688,59.0955965 C238.432979,59.0099402 238.593732,59.2176274 238.831927,59.5250515 C237.348781,59.8970112 237.21971,61.3871968 236.567314,62.6133731 C236.054549,62.2977354 235.717791,62.0900481 235.201506,61.7720636 C235.113503,62.3235496 235.027847,62.8633019 234.92459,63.5016176 C234.703995,63.5614597 234.416518,63.6389024 233.90258,63.778534 C233.765296,65.0751127 233.581076,66.6544747 231.659089,66.2238463 C231.013733,67.0604623 229.931881,67.8384096 230.005804,68.4861123 C230.226398,70.4327405 228.596581,71.3632264 228.151872,72.8850931 C227.941838,74.8082539 227.971173,74.8070805 228.56842,76.0919255 C227.175625,77.2019377 225.603303,77.9493773 223.79748,78.4105134 C223.561631,78.1124763 223.297622,77.7815847 222.951477,77.3439161" id="Fill-35"></path>
                    <path d="M35.8096325,41.1893156 C35.0129112,41.287879 34.5330011,41.3477211 33.9275398,41.4228171 C34.2959794,41.8311514 34.5060134,42.0623062 34.8415985,42.4342659 C34.047224,43.9115443 32.5417846,44.797442 31.5209488,46.0893273 L32.0208063,46.5891848 C31.2076578,47.2275005 30.393336,47.8658162 29.701045,48.4090886 C29.318525,49.4170173 30.1351936,50.5540171 28.7893331,51.1782523 C29.9814815,51.9773203 31.0715464,52.690732 32.1428373,53.4299579 C35.5022084,55.7508926 39.0950809,57.7421091 41.8642447,60.8679786 C43.4506469,62.6573747 44.9443526,64.3869286 44.9725136,66.9566187 C44.9772071,67.3895938 45.4172225,67.8167021 45.7680615,68.4514977 C44.8023743,69.0628258 43.8977026,69.6342592 42.7642229,70.351191 C36.3775457,66.6092998 29.7749676,63.2745696 23.7191821,58.387465 C23.2850335,58.635047 22.3369469,58.8439077 22.1621142,59.3308581 C21.4686498,61.2598857 20.1098822,62.6139598 18.7264737,63.9950215 C18.5575078,64.1639875 18.62087,64.5641082 18.5751084,64.8597985 C17.9825543,64.9255075 17.4791767,64.9794827 16.7106164,65.0639657 C16.8584616,65.5696901 16.9840127,65.9991451 17.2034337,66.7512781 C15.9713905,67.7826743 15.0514649,69.3174481 14.5668613,71.2230082 C14.2852514,72.3295003 13.2245209,73.2365188 12.2740876,74.5729923 L12.2740876,81.5264093 C11.6686264,81.5651307 11.1640754,81.5968118 10.592642,81.6331864 C10.4694377,81.9793318 10.3380197,82.3501182 10.1807876,82.7948271 L7.97484359,82.7948271 C7.6298715,81.7951121 7.27668579,80.7695828 6.86835148,79.5879947 C6.25467663,79.8578708 5.64217517,80.1265736 4.91233626,80.4469048 C4.76214432,79.9822485 4.6436335,79.6185024 4.52512268,79.2547564 C4.34442302,79.1796604 4.14494936,79.0130412 3.98185031,79.043549 C2.62777619,79.300518 1.70081037,78.1553045 1.53419119,77.426639 C0.854807382,74.4603483 -1.06483323,71.5269122 0.778538042,68.3423739 C0.812565902,65.1883434 2.77092787,62.7817524 3.88094011,60.0384029 C4.24351281,59.1431182 5.80175409,59.3003503 5.37933929,57.7538428 C5.20567987,57.1178738 6.36028034,56.1099452 6.92819357,55.2827162 C7.44330496,54.5329299 7.92790861,53.7549827 8.52046271,53.0709053 C9.21627376,52.2671438 10.0634501,51.5936269 10.7533943,50.7863453 C11.3271744,50.1128283 11.7695366,49.3278408 12.3315829,48.5017852 C8.44302,45.5812562 6.06458997,41.4322041 3.33884111,37.5635885 C2.46467714,33.820524 0.954544211,30.1854099 1.54357819,25.8028563 C2.4435564,24.7691134 3.59463674,23.445547 4.83254679,22.0245906 C6.20304816,22.3062004 7.74368882,21.4566773 8.99567937,22.8846741 C8.17549062,23.9899928 7.36116875,25.0870979 6.53863325,26.1959368 C6.76509452,26.4353052 6.97512855,26.6605931 7.18281583,26.8811875 C8.91941003,27.24024 9.55537898,24.7127915 11.3694159,25.2983053 C11.639292,25.8216303 11.9079948,26.3461287 12.1896046,26.8905745 C11.6310784,27.2484537 10.9915893,27.6591347 10.3204191,28.0885898 C10.7299268,28.4992708 11.0314841,28.8008281 11.3330413,29.1023853 C12.2388864,28.1648591 13.1189172,28.1531254 14.1831678,29.4356236 C14.0869511,30.1502087 14.6407839,31.1827782 13.5718398,32.0147007 C14.0153753,32.2282549 14.4495238,32.4371155 15.0702389,32.7339792 C14.559821,33.4204033 14.1068985,34.0282113 13.6434156,34.6512731 C14.0752174,34.8049852 14.4460037,34.9352297 15.2216042,35.2109727 C14.5081926,35.4034061 14.1702607,35.493756 13.57888,35.6533349 C13.6410688,36.1731398 13.5166912,36.8842047 13.8123815,37.2819786 C15.0373844,38.9293964 16.3891118,40.4817708 17.8382293,42.2430059 C18.6361239,41.5272474 19.2486254,40.9945354 19.8411795,40.4418761 C23.3425289,37.1775483 26.2724449,33.2631711 30.6151037,30.9516234 C30.5916363,29.7489146 31.850667,29.8333976 32.392766,29.189215 C33.0064409,28.4605495 33.6881714,27.7893793 34.1281869,27.3188561 L36.2789822,27.3188561 C35.3039081,28.7538931 33.6424098,29.5646948 34.1845088,31.6321806 C35.5737842,30.8037783 36.9337252,29.9929765 38.5905299,29.0061686 C38.4426847,29.9530818 38.3276941,30.6829207 38.1986229,31.5124964 C38.7782698,31.8046667 39.6395267,32.2423354 40.5641458,32.7093384 C40.3259508,33.203329 40.1264771,33.6151835 39.894149,34.0974404 C40.2285607,34.1678428 40.5195575,34.2276849 40.8234615,34.2910472 C40.8551426,34.4154248 40.9771736,34.6278056 40.9185049,34.7064217 C40.1393842,35.7577652 39.0962543,36.6870778 38.5999169,37.8522386 C37.9780285,39.3142632 36.6063537,39.9725263 35.8096325,41.1893156" id="Fill-37"></path>
                    <path d="M94.2217383,73.852423 C96.771481,70.7242067 98.9246232,68.1240089 101.033177,65.4874365 C103.03026,62.9904957 104.73752,60.2940812 106.289895,57.5307843 C106.091594,57.2855491 105.899161,57.0485274 105.569443,56.6425399 C106.111542,56.0276916 106.647774,55.4175369 107.21686,54.7710076 L109.325414,54.7710076 C110.113922,55.5595152 110.748718,56.6847813 111.651043,56.9722581 C112.752841,57.3219237 112.9089,58.2031279 113.353609,58.861391 C114.895423,61.1412575 115.967887,63.455152 114.782779,66.4261361 C114.054113,68.2530801 113.316061,70.0811975 112.558061,71.8999279 C112.330426,72.4478938 112.163807,73.0216739 111.873984,73.8559431 L110.258247,75.4728531 L110.258247,77.4863637 C108.993349,79.777964 107.940832,81.6882176 106.788579,83.7768242 C108.380848,84.8586754 109.847566,85.9018053 111.358872,86.8757061 C114.353324,88.8059071 116.830317,91.2031111 118.309943,94.4967732 C118.627927,95.2054914 118.773425,95.9928257 119.104317,97.0993178 C118.9905,97.3515933 118.71241,97.9723084 118.404986,98.6528655 C117.745549,98.9602897 117.033311,99.2923546 116.477132,99.550497 C114.972866,99.0306921 113.642259,98.6423052 112.370321,98.1131133 C111.09721,97.5850948 109.882767,96.9162714 108.64251,96.3096368 C108.431303,94.4568785 106.319229,95.2054914 105.449759,93.9452872 C104.736347,92.910371 103.149945,92.4797425 101.758322,91.6689408 C97.5881497,95.9235966 93.9154876,100.571333 90.5455562,105.466651 C90.2862404,105.842131 90.36955,106.453459 90.294454,106.95449 C88.8253892,108.085623 87.3727516,107.913137 85.9154206,106.885261 L85.9154206,105.867945 C84.0215942,104.733292 82.2462786,103.670215 80.3043439,102.506227 C79.3750313,101.417336 79.8479012,99.7065558 79.24244,98.3829894 C78.5677497,96.9092311 79.1380097,95.4824078 78.8822141,94.3982098 C80.9989816,89.6800711 83.504136,85.5474462 87.0911418,81.9815613 L87.0911418,79.8037783 C85.0177891,78.3593543 83.7294239,76.1076487 82.4246315,73.899358 C81.9869629,73.1589587 81.9189072,72.1920982 81.7182601,71.3214543 C81.3110992,69.5496589 80.7021178,67.8353588 80.7560931,65.9532662 C80.8605234,62.3533533 82.9045417,59.7848366 86.3413555,58.4929514 C88.5085781,57.6786295 90.6136119,58.0881372 92.9439336,57.8593292 C91.6895963,60.4560068 88.6845843,60.2342391 86.9280427,62.4108487 C89.9576956,62.277084 91.8034136,59.4234373 94.8929085,59.9678831 C94.7732243,60.6953752 94.6535401,61.4240408 94.5268157,62.1914277 C95.0935556,62.3909013 95.925478,62.6854183 96.7257194,62.9693749 L96.7257194,67.0327707 C95.9020106,68.4701544 94.9973389,69.904018 94.2592863,71.4200178 C94.0210913,71.9069682 94.2217383,72.6086461 94.2217383,73.852423" id="Fill-39"></path>
                    <path d="M148.297756,34.0184723 C147.099741,35.5203916 146.006156,36.8932397 144.796407,38.4092395 L144.796407,42.5148767 C143.671141,42.9666259 142.576382,43.4078147 141.339646,43.9041521 C139.877621,42.484369 139.285067,40.601103 138.816891,38.8210939 C138.190309,39.0545954 137.636476,39.259936 136.81394,39.5650133 C136.168584,38.6368741 135.383597,37.8166854 134.960009,36.8404378 C133.692764,33.9152153 133.793675,30.7916925 133.932133,27.8523895 C134.463671,26.6414671 134.937715,25.5596158 135.529095,24.2090618 C134.644371,24.0764705 133.860557,24.1996748 133.535532,23.87113 C131.468046,21.7813501 129.427548,19.6551955 127.532548,17.4105302 C126.511713,16.1996078 125.434555,14.8302798 125.027394,13.3553481 C124.433667,11.1963391 124.419586,8.87775114 124.13915,6.46646663 C125.11305,5.09713864 125.905078,3.49313576 127.141815,2.38781702 C128.278815,1.37167474 129.895725,0.892937962 131.648746,-3.34639461e-13 C132.05708,0.44236217 132.454854,0.870643847 132.857322,1.30596577 C132.622647,1.53125367 129.497951,4.54095915 129.497951,4.54095915 C129.723239,4.76742042 129.9497,4.99388169 130.282938,5.32594666 C131.713282,4.28281677 133.137758,2.91818228 135.463386,3.81816048 C134.886086,4.60901487 134.436684,5.22386308 133.647003,6.30454096 C134.714774,5.88799303 135.310848,5.65683826 136.136903,5.33533366 C136.526464,5.92202089 136.944185,6.55212297 137.451083,7.31716312 C136.568705,8.20071408 135.875241,8.89417839 135.038625,9.73196775 C135.578377,9.84226495 135.869374,9.90328042 136.352804,10.0030172 C135.627659,11.2256734 136.037167,12.916506 134.167981,13.5407412 C136.023086,15.8229546 138.088225,17.080812 140.183872,18.4724341 C147.238199,12.6231624 154.138814,6.90061518 161.132126,1.10179862 L164.219274,1.10179862 C163.678349,2.18599661 163.248894,3.05077359 162.813572,3.92611093 C163.740537,4.63365573 164.473897,3.83928122 165.295259,3.48257539 C167.667822,5.69673299 168.226348,8.46120321 167.738224,11.5448313 C166.75259,12.809729 165.739968,14.1086545 164.706225,15.4345676 C164.773107,15.4955831 164.926819,15.6387348 165.349234,16.0294685 C164.780147,16.1022177 164.232181,16.1726201 163.683042,16.2430226 C163.89777,16.473004 164.112497,16.7041588 164.327225,16.9353135 L163.13625,16.9353135 C160.943213,21.0620715 157.236523,23.8699566 154.522508,27.6294483 C158.242105,29.7016276 162.404064,31.2434417 166.339562,33.5890172 C166.459246,34.1803979 166.594184,34.8515681 166.75259,35.6447693 C167.23602,35.133178 167.598593,34.7494846 167.948258,34.3798716 C169.532314,34.5934258 169.499459,36.4145029 170.828893,37.0809796 C171.99288,37.6653201 172.672264,39.2165211 173.578109,40.3546943 L173.578109,44.1540808 C173.270685,44.4615049 172.969128,44.7630622 172.546713,45.185477 C169.251877,44.8334646 166.527302,42.9560655 163.526983,41.437719 C163.465968,41.4928676 163.243027,41.694688 163.145637,41.7826911 C161.04647,41.2640595 159.794479,39.0111806 157.372634,39.3479391 C156.243848,37.8964748 154.38757,37.7838309 152.939626,36.9284409 C151.476428,36.0648373 150.058991,35.1273111 148.297756,34.0184723" id="Fill-41"></path>
                    <path d="M241.487038,85.1439228 C242.147648,85.5170558 242.667453,85.8103995 243.430146,86.2410279 C243.256487,87.2829844 243.080481,88.3331545 242.865753,89.6262132 C243.401985,90.5578725 243.851388,91.9764822 245.478858,92.549089 C246.207524,91.5329467 246.654579,90.3701326 248.056762,89.8022194 C249.041223,89.4020987 249.619697,87.9999162 250.374176,87.0412693 C251.203752,85.9864056 252.356006,85.2659537 253.009575,83.9811087 C253.558715,82.9004308 254.739129,82.1612049 255.484222,81.1544496 C256.252782,80.1136665 256.834776,78.9344251 257.497733,77.8173726 L261.104686,77.8173726 C261.294773,78.8288214 261.60689,79.8285365 260.415915,80.8728397 C261.443791,80.9197747 262.239339,80.9561493 262.966831,80.9890038 C263.291856,82.4815361 263.585199,83.8332635 263.87385,85.1544831 C263.355218,85.3574769 262.987952,85.5006286 262.554977,85.6695945 C262.600738,85.9629381 262.593698,86.2691889 262.698128,86.529678 C263.589893,88.7321018 263.444395,89.487755 261.730094,91.1879746 C261.014336,91.8966928 260.715126,92.9996648 261.006122,93.6884356 C261.463738,94.7702868 260.089717,94.3537389 260.738593,95.3522805 C260.050996,94.7855407 259.835095,94.6071878 259.461962,94.2997636 L259.461962,96.0821194 C258.786098,96.212364 258.201757,96.3238346 257.50712,96.4564259 L257.50712,98.2059272 C256.688104,99.0589704 256.110804,99.6620849 255.629721,100.164289 C256.7456,101.256701 257.774649,102.263456 258.630039,103.102419 L258.630039,105.51253 C259.319983,106.202474 260.041609,106.924099 260.780835,107.665672 C260.550853,108.074006 260.404181,108.330975 260.147212,108.782725 C260.482797,109.463282 260.894652,110.301071 261.42619,111.381749 C260.808995,112.670114 260.127265,114.093417 259.479562,115.445145 L256.812482,115.445145 C253.705387,113.667482 250.693334,111.941449 247.689496,110.221282 C247.156784,111.043817 246.733196,111.69856 246.374143,112.253566 C245.82031,111.98369 245.393202,111.774829 244.658669,111.41695 L244.658669,114.394975 C243.684769,114.032402 243.004211,113.778953 241.729927,113.30491 C242.255599,114.023015 242.399924,114.218968 242.67684,114.596795 C242.090153,115.148281 241.469438,115.731448 240.487323,116.65372 C240.290196,115.462745 240.166992,114.716479 240.032054,113.895117 C240.481456,113.740232 240.845202,113.614681 241.307512,113.453928 C241.353274,113.213387 241.408422,112.92239 241.475305,112.566857 C241.07049,112.426052 240.698531,112.299328 240.325398,112.170257 C240.462682,111.60469 240.602314,111.03443 240.839336,110.06757 C240.246782,110.610842 240.017973,110.820876 239.881862,110.945254 C238.519574,110.689458 237.231209,110.448916 235.873615,110.195467 C235.664754,109.794173 235.393705,109.270848 235.073374,108.658347 C235.315089,107.721994 235.589658,106.658917 235.867748,105.574719 C236.493157,105.677976 237.287531,105.810567 238.081906,105.941985 C238.11476,105.824648 238.146441,105.70731 238.180469,105.588799 C237.350893,105.172251 236.522491,104.755703 235.791479,104.388437 C236.21976,103.503713 236.645695,102.622509 237.089231,101.70493 C234.984197,98.1296579 232.69025,94.7550329 231.393671,90.8711635 C230.615724,88.1958697 231.536823,85.5522571 231.92169,82.9192048 C232.2209,80.8716664 233.91408,79.4237223 235.766838,78.3876326 C236.030847,78.2397875 236.280776,78.0696482 236.703191,77.8068123 L239.885382,77.8068123 C240.387586,78.3090165 240.839336,78.7619391 241.15732,79.0799236 C240.530738,79.7065055 239.893596,80.3424745 239.515769,80.7191277 L239.515769,82.68805 C240.220967,82.5050036 240.898004,82.3301708 241.672431,82.1295238 C242.078419,82.5085237 242.450379,82.8570159 242.966663,83.3392728 C242.424564,84.001056 241.977509,84.5466752 241.487038,85.1439228" id="Fill-43"></path>
                    <path d="M49.0398988,118.010376 C49.4012982,118.371775 49.7028554,118.673333 50.1299637,119.100441 C48.169255,120.777193 46.2191066,122.443385 44.2701317,124.11075 C44.3135465,124.223394 44.3581347,124.336038 44.402723,124.447508 C44.8169241,124.326651 45.3226485,124.31609 45.6242058,124.062641 C46.1874255,123.590945 46.6309611,122.979617 47.4042148,122.827078 C48.7711961,122.056171 50.1381773,121.284091 51.4676106,120.533131 C52.6269045,121.470657 51.7809016,122.211057 51.2822174,123.348056 C52.0413907,123.06058 52.5330346,122.874013 53.0622265,122.672193 C53.2933812,122.903347 53.5949385,123.204905 53.8976691,123.507635 C53.8988424,124.78544 53.8988424,126.064418 53.8988424,127.35865 C53.5257094,127.722396 53.145536,128.095529 52.7430686,128.487437 C52.8017373,128.635282 52.8169912,128.839449 52.926115,128.919238 C53.6536072,129.464857 54.379926,130.017517 55.1473129,130.503294 C55.9721951,131.024272 57.1267956,131.174464 57.1584767,132.508591 C57.1619968,132.662303 57.4224859,132.835962 57.5937986,132.95682 C58.2520617,133.420303 59.0229687,133.771142 59.5592008,134.344922 C60.0942596,134.916355 60.3981636,135.703689 60.9390892,136.628308 C60.9390892,137.169234 60.9390892,138.022277 60.9379158,138.874147 C60.4087239,139.402166 59.8818788,139.930184 59.44069,140.371373 C55.4054553,138.929296 51.4171555,137.504819 47.4300291,136.080343 C46.5441314,136.553213 45.5901779,137.061284 44.6350511,137.569355 C44.5951564,137.504819 44.5552616,137.440284 44.5153669,137.375748 C43.6857912,138.20415 42.8562154,139.033726 41.7966583,140.093283 C41.7814044,140.345559 41.7508967,140.840723 41.7121753,141.471998 C40.0319031,143.087735 38.2730148,144.780914 36.8544051,146.146722 C36.1421668,148.356186 36.5035661,150.625492 33.5595696,151.091322 C32.9505883,150.117421 30.7634183,149.961362 31.2621024,147.690883 C30.6566412,147.51605 29.9127218,147.298976 29.10192,147.064301 C28.9188736,147.187505 28.5891554,147.4081 28.3321864,147.579412 C27.5084775,146.708768 26.789199,145.946075 25.7437223,144.839583 C25.5102208,142.843673 25.2110103,140.289237 24.896546,137.601036 C27.5542391,134.727442 30.1732109,131.896089 32.9517616,128.891077 C31.8652169,128.21052 30.7446443,127.641434 29.784824,126.872873 C28.7921492,126.077325 27.9555332,125.086997 27.0250473,124.156511 C27.2820163,123.326936 27.5436788,122.480933 27.8252886,121.566874 C27.3043104,121.388521 26.9323507,121.260623 26.4700411,121.101044 L26.4700411,118.939689 C26.6483941,118.760162 26.8748553,118.534874 27.1365178,118.272038 C28.0517499,118.090165 29.0127436,117.898905 30.2001985,117.661884 C33.3612693,119.436026 36.8180305,121.375614 40.1809217,123.261227 C43.5531999,121.978728 45.7391965,119.020651 49.0398988,118.010376" id="Fill-45"></path>
                </g>
            </g>
        </g>
    </g>
</svg>